<?xml version="1.0" encoding="UTF-8" standalone="no"?>
<svg
   xmlns:dc="http://purl.org/dc/elements/1.1/"
   xmlns:cc="http://creativecommons.org/ns#"
   xmlns:rdf="http://www.w3.org/1999/02/22-rdf-syntax-ns#"
   xmlns:svg="http://www.w3.org/2000/svg"
   xmlns="http://www.w3.org/2000/svg"
   xmlns:sodipodi="http://sodipodi.sourceforge.net/DTD/sodipodi-0.dtd"
   xmlns:inkscape="http://www.inkscape.org/namespaces/inkscape"
   version="1.1"
   id="Capa_1"
   x="0px"
   y="0px"
   width="612px"
   height="612px"
   viewBox="0 0 612 612"
   style="enable-background:new 0 0 612 612;"
   xml:space="preserve"
   sodipodi:docname="cardeal.svg"
   inkscape:version="1.0.1 (3bc2e813f5, 2020-09-07)"><metadata
   id="metadata41"><rdf:RDF><cc:Work
       rdf:about=""><dc:format>image/svg+xml</dc:format><dc:type
         rdf:resource="http://purl.org/dc/dcmitype/StillImage" /></cc:Work></rdf:RDF></metadata><defs
   id="defs39" /><sodipodi:namedview
   pagecolor="#ffffff"
   bordercolor="#666666"
   borderopacity="1"
   objecttolerance="10"
   gridtolerance="10"
   guidetolerance="10"
   inkscape:pageopacity="0"
   inkscape:pageshadow="2"
   inkscape:window-width="1920"
   inkscape:window-height="1026"
   id="namedview37"
   showgrid="false"
   inkscape:zoom="0.38562092"
   inkscape:cx="306"
   inkscape:cy="303.40678"
   inkscape:window-x="1920"
   inkscape:window-y="28"
   inkscape:window-maximized="1"
   inkscape:current-layer="Capa_1"
   inkscape:document-rotation="0" />
<g
   id="g4"
   style="fill:#1a1a1a">
	<path
   d="M612,394.37v60.002c0,29.686-24.068,53.727-53.742,53.727h-16.613c1.407-5.791,2.36-11.746,2.36-17.994   c0-42.184-34.34-76.496-76.522-76.496c-42.184,0-76.522,34.312-76.522,76.496c0,6.248,0.938,12.201,2.36,17.994H218.676   c1.408-5.791,2.36-11.746,2.36-17.994c0-42.184-34.325-76.496-76.508-76.496c-42.195,0-76.535,34.312-76.535,76.496   c0,6.248,0.938,12.201,2.346,17.994h-16.6C24.068,508.099,0,484.058,0,454.372V394.37c0-29.701,24.068-53.742,53.742-53.742h62.792   c31.43-79.673,121.225-136.752,225.53-136.752c104.692,0,194.729,57.481,225.851,137.611C592.973,346.017,612,367.968,612,394.37z    M467.47,444.315c-25.314,0-45.816,20.502-45.816,45.789c0,3.205,0.335,6.316,0.953,9.318c0.015,0.146,0.094,0.268,0.12,0.391   c0.616,2.842,1.461,5.631,2.574,8.26c0.015,0,0.015,0,0.015,0.014c6.999,16.371,23.224,27.85,42.143,27.85   s35.143-11.49,42.156-27.85c0-0.014,0-0.014,0.015-0.014c1.113-2.629,1.958-5.416,2.574-8.26c0.026-0.135,0.108-0.256,0.12-0.391   c0.631-3.018,0.953-6.113,0.953-9.318C513.286,464.817,492.786,444.315,467.47,444.315z M144.516,444.315   c-25.314,0-45.831,20.502-45.831,45.789c0,3.205,0.322,6.316,0.953,9.318c0,0.041,0.014,0.053,0.014,0.094   c4.345,20.797,22.769,36.43,44.864,36.43c18.919,0,35.143-11.49,42.143-27.85c0-0.014,0-0.014,0-0.014   c1.14-2.627,1.985-5.416,2.601-8.312c0.027-0.121,0.094-0.229,0.108-0.336c0.63-3.016,0.953-6.113,0.953-9.318   C190.32,464.817,169.818,444.315,144.516,444.315z M94.354,167.511c-27.407-7.014-34.205-10.418-34.205-20.837v-0.455   c0-7.697,7.014-13.811,20.382-13.811c10.887,0,21.763,3.862,33.319,10.647c2.709,1.595,5.404,2.507,8.823,2.507   c9.064,0,16.304-7.026,16.304-16.077c0-6.797-3.862-11.571-7.724-13.811c-9.976-6.369-21.279-10.565-33.721-12.604V91.152   c0-8.34-6.744-15.098-15.083-15.098c-8.34,0-15.084,6.758-15.084,15.098v11.813c-24.994,4.61-41.875,21.934-41.875,46.445v0.455   c0,31.496,20.623,40.333,52.548,48.471c26.508,6.812,31.938,11.33,31.938,20.153v0.455c0,9.278-8.621,14.937-22.889,14.937   c-15.406,0-28.519-5.431-40.547-14.253c-2.267-1.583-5.431-3.152-9.949-3.152c-9.063,0-16.304,7.014-16.304,16.063   c0,5.43,2.709,10.418,6.571,13.14c12.269,8.782,26.2,14.347,40.506,17.042v12.471c0,8.327,6.744,15.083,15.084,15.083   c8.339,0,15.083-6.758,15.083-15.083v-11.222c28.132-3.499,47.089-20.476,47.089-48.405v-0.469   C144.636,187.45,126.494,175.891,94.354,167.511z"
   id="path2"
   style="fill:#1a1a1a" />
</g>
<g
   id="g6">
</g>
<g
   id="g8">
</g>
<g
   id="g10">
</g>
<g
   id="g12">
</g>
<g
   id="g14">
</g>
<g
   id="g16">
</g>
<g
   id="g18">
</g>
<g
   id="g20">
</g>
<g
   id="g22">
</g>
<g
   id="g24">
</g>
<g
   id="g26">
</g>
<g
   id="g28">
</g>
<g
   id="g30">
</g>
<g
   id="g32">
</g>
<g
   id="g34">
</g>
<path
   style="fill:#ffffff;stroke-width:2.59322"
   d="M 37.601698,503.84572 C 25.161549,499.49723 13.37133,489.36923 7.1074223,477.65062 1.7824072,467.68848 1.2966141,463.30511 1.2966141,425.21891 c 0,-39.4808 0.3315585,-42.20503 6.6250542,-54.43448 4.7056397,-9.14396 10.2813147,-15.13437 19.2450127,-20.67654 12.339893,-7.62964 13.490015,-7.82306 51.825518,-8.71564 l 39.205561,-0.91283 9.88697,-19.20622 c 26.80834,-52.07734 89.60221,-95.56507 159.23874,-110.28036 20.8386,-4.40353 31.6174,-5.11768 62.76128,-4.15827 46.64412,1.43692 70.78358,7.22476 110.21186,26.42517 45.30568,22.06254 79.92875,54.80025 98.02985,92.69177 4.8369,10.12524 9.97163,17.41911 12.32262,17.50424 9.49435,0.3438 27.71234,15.26929 33.84585,27.72895 5.76494,11.71096 6.20846,15.57592 6.20846,54.10343 0,38.01451 -0.48696,42.40253 -5.81081,52.36249 -9.54479,17.85655 -29.09664,29.32395 -49.99721,29.32395 h -9.65272 l -1.18057,-20.39365 c -1.46449,-25.29826 -10.74739,-43.66916 -29.16364,-57.71507 -15.36288,-11.71713 -26.96765,-15.26283 -49.71626,-15.19026 -42.26523,0.13485 -74.17014,32.51061 -74.69164,75.79394 l -0.21083,17.50346 h -84.27966 -84.27966 l -0.18451,-17.50346 c -0.45691,-43.34056 -32.40824,-75.76551 -74.71806,-75.82555 -22.77489,-0.0323 -34.37084,3.51807 -49.716261,15.22187 -18.41626,14.04591 -27.699146,32.41681 -29.163638,57.71507 l -1.180572,20.39365 -10.687993,-0.20486 c -5.878398,-0.11247 -14.188844,-1.42832 -18.467658,-2.92399 z"
   id="path23" /><path
   style="fill:#ffffff;stroke-width:2.59322"
   d="m 131.36007,531.80203 c -19.27462,-7.03595 -30.22447,-22.13719 -30.22447,-41.68339 0,-14.15366 4.67636,-24.15652 15.58409,-33.33477 22.48903,-18.92327 54.25942,-11.96044 67.17638,14.72246 6.84734,14.1447 6.82535,23.12534 -0.0916,37.41383 -9.70696,20.05192 -32.70669,30.08686 -52.44441,22.88187 z"
   id="path25" /><path
   style="fill:#ffffff;stroke-width:2.59322"
   d="m 455.86573,532.93684 c -17.6106,-5.30861 -33.24398,-25.60396 -33.11386,-42.98864 0.20275,-27.08975 28.7342,-49.52896 54.24253,-42.66028 20.60434,5.54818 33.87,22.32343 33.87,42.83072 0,20.21706 -13.12329,37.1137 -33.14409,42.67402 -10.97211,3.04725 -12.1972,3.05533 -21.85458,0.14418 z"
   id="path27" /><path
   style="fill:#ffffff;stroke-width:2.59322"
   d="m 452.51695,530.03853 c -16.60112,-9.64224 -27.22882,-25.2732 -27.22882,-40.0475 0,-30.74209 34.96486,-51.93594 60.864,-36.89255 14.72712,8.55418 22.11905,20.66377 22.11905,36.23582 0,15.53864 -4.88047,25.53789 -16.96252,34.75332 -10.34025,7.8869 -30.21038,10.93511 -38.79171,5.95091 z"
   id="path29" /><path
   style="fill:#ffffff;stroke-width:2.59322"
   d=""
   id="path31" /><path
   style="fill:#ffffff;stroke-width:2.59322"
   d="m 74.230414,285.81156 c -2.506615,-1.83289 -5.204995,-8.1601 -5.996402,-14.06048 -1.194525,-8.90584 -2.596781,-11.00352 -8.255958,-12.35033 -13.536677,-3.22155 -33.491512,-14.95194 -36.438737,-21.42039 -2.381259,-5.2263 -2.169088,-7.75055 1.066524,-12.68872 5.370682,-8.1967 14.301564,-7.9029 29.390015,0.96684 10.253279,6.02738 15.073295,7.13135 31.135935,7.13135 20.606139,0 26.376689,-3.49934 26.376689,-15.99518 0,-8.07075 -7.63968,-12.50275 -37.805431,-21.93203 C 53.512456,189.1514 46.133725,185.47187 38.708891,178.0122 17.307335,156.51021 25.959172,120.81565 55.537795,108.5818 65.539399,104.4451 67.139007,102.66065 68.5054,94.115689 c 1.026581,-6.419881 3.763741,-11.192152 8.018157,-13.979753 5.975812,-3.915503 6.944945,-3.914347 12.942547,0.01543 5.017428,3.287544 6.483051,6.45775 6.483051,14.023111 0,9.308773 0.525939,9.916023 11.021185,12.725053 24.16876,6.4687 36.25414,21.14852 26.38698,32.05161 -5.75823,6.36277 -11.71958,6.27668 -24.72273,-0.35703 -24.054323,-12.27161 -48.990519,-8.41302 -48.990519,7.5807 0,10.33332 5.814052,14.3392 32.415254,22.33411 39.178695,11.77504 50.539855,22.2847 50.558105,46.76883 0.0168,22.63552 -13.31752,39.1536 -36.68707,45.44636 -9.0251,2.43021 -9.981205,3.50901 -9.981205,11.26206 0,13.88131 -11.569969,21.24635 -21.718741,13.82539 z"
   id="path33" /></svg>
