<?xml version="1.0" encoding="UTF-8" standalone="no"?>
<!-- Generator: Adobe Illustrator 20.0.0, SVG Export Plug-In . SVG Version: 6.00 Build 0)  -->

<svg
   xmlns:dc="http://purl.org/dc/elements/1.1/"
   xmlns:cc="http://creativecommons.org/ns#"
   xmlns:rdf="http://www.w3.org/1999/02/22-rdf-syntax-ns#"
   xmlns:svg="http://www.w3.org/2000/svg"
   xmlns="http://www.w3.org/2000/svg"
   xmlns:sodipodi="http://sodipodi.sourceforge.net/DTD/sodipodi-0.dtd"
   xmlns:inkscape="http://www.inkscape.org/namespaces/inkscape"
   version="1.1"
   id="Layer_1"
   x="0px"
   y="0px"
   viewBox="0 0 56 56"
   style="enable-background:new 0 0 56 56;"
   xml:space="preserve"
   sodipodi:docname="carsearch.svg"
   inkscape:version="0.92.5 (2060ec1f9f, 2020-04-08)"><metadata
   id="metadata17"><rdf:RDF><cc:Work
       rdf:about=""><dc:format>image/svg+xml</dc:format><dc:type
         rdf:resource="http://purl.org/dc/dcmitype/StillImage" /></cc:Work></rdf:RDF></metadata><defs
   id="defs15" /><sodipodi:namedview
   pagecolor="#ffffff"
   bordercolor="#666666"
   borderopacity="1"
   objecttolerance="10"
   gridtolerance="10"
   guidetolerance="10"
   inkscape:pageopacity="0"
   inkscape:pageshadow="2"
   inkscape:window-width="1366"
   inkscape:window-height="708"
   id="namedview13"
   showgrid="false"
   inkscape:zoom="4.2142857"
   inkscape:cx="28"
   inkscape:cy="28"
   inkscape:window-x="0"
   inkscape:window-y="28"
   inkscape:window-maximized="1"
   inkscape:current-layer="Layer_1" />
<style
   type="text/css"
   id="style2">
	.st0{fill:#37424B;}
</style>
<g
   id="g8">
	<g
   id="g6">
		<path
   class="st0"
   d="M50,44.1l-9.9-9.9c0.2-0.2,0.3-0.5,0.5-0.8l-2-2c3.7-6.8,2.7-15.6-3.1-21.2C32.1,6.9,27.6,5,22.8,5    c-4.8,0-9.3,1.9-12.6,5.3c-6.9,7-6.8,18.4,0.2,25.3c3.4,3.3,7.9,5.2,12.7,5.1c3.1,0,6-0.8,8.7-2.3l1.9,1.9    c0.3-0.2,0.6-0.4,0.9-0.6l9.9,9.9c1.6,1.5,4.1,1.5,5.5,0C51.6,48,51.6,45.5,50,44.1z M32.6,32.4c-2.6,2.6-5.9,4-9.5,4.1    c-3.6,0-7-1.3-9.6-3.9c-5.3-5.3-5.4-13.8-0.1-19.1c2.6-2.6,5.9-4,9.5-4.1c3.6,0,7,1.3,9.6,3.9C37.7,18.5,37.8,27.1,32.6,32.4z     M48.7,46c-0.2,0.2-0.3,0.2-0.5,0.2c-0.2,0-0.3-0.1-0.5-0.2l-9.9-9.7c-0.2-0.2-0.2-0.7,0-1c0.2-0.2,0.7-0.2,1,0l9.9,9.6    C49,45.3,49,45.8,48.7,46z"
   id="path4"
   style="fill:#1a1a1a" />
	</g>
</g>
<path
   class="st0"
   d="M32.5,22.8c0-0.2-0.1-0.9-0.2-1.2c-0.3-0.7-1.1-1.5-1.4-1.8c0,0,0.4,0,0.6,0c0.2,0,0.8,0,0.8,0  c0.3,0,0.4-0.4,0.4-0.7c0-0.3-0.2-0.5-0.5-0.5h-0.6c-0.3,0-0.4,0.2-0.6,0.4c0,0,0,0.1-0.2,0.2c-0.1,0-0.2,0-0.2-0.1  c-0.3-0.9-0.6-1.7-0.9-2.7c-0.1-0.3-0.3-1-1.2-1.1c-0.9-0.1-2.9-0.2-5.1-0.2c-2.2,0-4.5,0.1-4.9,0.1c-0.8,0.1-1.1,0.6-1.3,1.2  C16.8,16.7,16,19,16,19c0,0.1-0.1,0.1-0.2,0.1c-0.1,0-0.1-0.1-0.2-0.2c-0.1-0.3-0.3-0.4-0.6-0.4h-0.6c-0.3,0-0.5,0.2-0.5,0.5  c0,0.3,0.1,0.7,0.4,0.7c0,0,0.6,0,0.8,0c0.2,0,0.5,0,0.5,0c-0.4,0.3-1.2,1.1-1.5,1.9c-0.1,0.2-0.2,0.9-0.2,1.1  c0,0.2-0.3,0.5-0.3,1.2c0,0.3,0,1.4,0,2.3c0,0.8,0.3,1.4,0.5,1.5v1.9c0,0.4,0.4,0.8,0.8,0.8h1.4c0.4,0,0.8-0.4,0.8-0.8v-2  c3.3,0,9,0,12.3,0v2c0,0.4,0.3,0.8,0.7,0.8h1.4c0.4,0,0.6-0.4,0.6-0.8v-1.9c0.5-0.1,0.5-0.8,0.5-1.5c0-0.9,0-1.8,0-2.2  C32.7,23.4,32.5,23,32.5,22.8z M18,16.4c0-0.2,0-0.3,0.6-0.4c0.5-0.1,3.3-0.1,4.7-0.1c1.4,0,4.1,0,4.7,0.1c0.6,0.1,0.6,0.2,0.7,0.4  c0.3,1.3,0.6,2.8,0.6,2.8s-2.4-0.1-6-0.1c-3.6,0-5.9,0.1-5.9,0.1S17.6,17.6,18,16.4z M29.2,20.3c-2.8,0.1-6.2,1.1-6.2,1.1  s-2.4-1-5.8-1.1C19.5,19.9,27.7,19.9,29.2,20.3z M15.2,22.5c0-0.4,0.3-0.7,0.8-0.7c0.4,0,1.5,0,1.5,0c0.3,0,1,0.1,1.3,0.8  c0.3,0.7,0.7,1.2,0,1.2c-0.8,0-2.9,0-2.9,0c-0.3,0-0.7-0.2-0.7-0.8C15.1,22.7,15.2,22.5,15.2,22.5z M19,25.8h-3.8  c-0.1,0-0.2,0-0.2-0.1s0.1-0.1,0.2-0.1H19c0.1,0,0.2,0,0.2,0.1S19.2,25.8,19,25.8z M25.9,26.3h-5.3c-0.1,0-0.2,0-0.2,0v-1.1  c0-0.1,0.1-0.1,0.2-0.1h5.3c0.1,0,0,0.1,0,0.1L25.9,26.3C25.9,26.3,25.9,26.3,25.9,26.3z M27.5,22.6c0.3-0.7,1-0.8,1.3-0.8  c0,0,1.1,0,1.5,0c0.4,0,0.8,0.3,0.8,0.7l0.1,0.5c0,0.6-0.4,0.8-0.7,0.8c0,0-2.2,0-2.9,0C26.8,23.8,27.2,23.3,27.5,22.6z M31.2,25.8  h-3.8c-0.1,0-0.2,0-0.2-0.1s0.1-0.1,0.2-0.1h3.8c0.1,0,0.2,0,0.2,0.1S31.3,25.8,31.2,25.8z"
   id="path10"
   style="fill:#1a1a1a" />
</svg>