<?xml version="1.0" encoding="UTF-8" standalone="no"?>
<svg
   xmlns:dc="http://purl.org/dc/elements/1.1/"
   xmlns:cc="http://creativecommons.org/ns#"
   xmlns:rdf="http://www.w3.org/1999/02/22-rdf-syntax-ns#"
   xmlns:svg="http://www.w3.org/2000/svg"
   xmlns="http://www.w3.org/2000/svg"
   xmlns:sodipodi="http://sodipodi.sourceforge.net/DTD/sodipodi-0.dtd"
   xmlns:inkscape="http://www.inkscape.org/namespaces/inkscape"
   version="1.1"
   id="Layer_1"
   x="0px"
   y="0px"
   viewBox="0 0 56 56"
   style="enable-background:new 0 0 56 56;"
   xml:space="preserve"
   sodipodi:docname="carsearch.svg"
   inkscape:version="1.0.1 (3bc2e813f5, 2020-09-07)"><metadata
   id="metadata17"><rdf:RDF><cc:Work
       rdf:about=""><dc:format>image/svg+xml</dc:format><dc:type
         rdf:resource="http://purl.org/dc/dcmitype/StillImage" /></cc:Work></rdf:RDF></metadata><defs
   id="defs15" /><sodipodi:namedview
   pagecolor="#ffffff"
   bordercolor="#666666"
   borderopacity="1"
   objecttolerance="10"
   gridtolerance="10"
   guidetolerance="10"
   inkscape:pageopacity="0"
   inkscape:pageshadow="2"
   inkscape:window-width="1920"
   inkscape:window-height="1026"
   id="namedview13"
   showgrid="false"
   inkscape:zoom="4.2142857"
   inkscape:cx="28"
   inkscape:cy="27.762712"
   inkscape:window-x="1920"
   inkscape:window-y="28"
   inkscape:window-maximized="1"
   inkscape:current-layer="Layer_1"
   inkscape:document-rotation="0" />
<style
   type="text/css"
   id="style2">
	.st0{fill:#37424B;}
</style>
<g
   id="g8">
	<g
   id="g6">
		<path
   class="st0"
   d="M50,44.1l-9.9-9.9c0.2-0.2,0.3-0.5,0.5-0.8l-2-2c3.7-6.8,2.7-15.6-3.1-21.2C32.1,6.9,27.6,5,22.8,5    c-4.8,0-9.3,1.9-12.6,5.3c-6.9,7-6.8,18.4,0.2,25.3c3.4,3.3,7.9,5.2,12.7,5.1c3.1,0,6-0.8,8.7-2.3l1.9,1.9    c0.3-0.2,0.6-0.4,0.9-0.6l9.9,9.9c1.6,1.5,4.1,1.5,5.5,0C51.6,48,51.6,45.5,50,44.1z M32.6,32.4c-2.6,2.6-5.9,4-9.5,4.1    c-3.6,0-7-1.3-9.6-3.9c-5.3-5.3-5.4-13.8-0.1-19.1c2.6-2.6,5.9-4,9.5-4.1c3.6,0,7,1.3,9.6,3.9C37.7,18.5,37.8,27.1,32.6,32.4z     M48.7,46c-0.2,0.2-0.3,0.2-0.5,0.2c-0.2,0-0.3-0.1-0.5-0.2l-9.9-9.7c-0.2-0.2-0.2-0.7,0-1c0.2-0.2,0.7-0.2,1,0l9.9,9.6    C49,45.3,49,45.8,48.7,46z"
   id="path4"
   style="fill:#1a1a1a" />
	</g>
</g>
<path
   class="st0"
   d="M32.5,22.8c0-0.2-0.1-0.9-0.2-1.2c-0.3-0.7-1.1-1.5-1.4-1.8c0,0,0.4,0,0.6,0c0.2,0,0.8,0,0.8,0  c0.3,0,0.4-0.4,0.4-0.7c0-0.3-0.2-0.5-0.5-0.5h-0.6c-0.3,0-0.4,0.2-0.6,0.4c0,0,0,0.1-0.2,0.2c-0.1,0-0.2,0-0.2-0.1  c-0.3-0.9-0.6-1.7-0.9-2.7c-0.1-0.3-0.3-1-1.2-1.1c-0.9-0.1-2.9-0.2-5.1-0.2c-2.2,0-4.5,0.1-4.9,0.1c-0.8,0.1-1.1,0.6-1.3,1.2  C16.8,16.7,16,19,16,19c0,0.1-0.1,0.1-0.2,0.1c-0.1,0-0.1-0.1-0.2-0.2c-0.1-0.3-0.3-0.4-0.6-0.4h-0.6c-0.3,0-0.5,0.2-0.5,0.5  c0,0.3,0.1,0.7,0.4,0.7c0,0,0.6,0,0.8,0c0.2,0,0.5,0,0.5,0c-0.4,0.3-1.2,1.1-1.5,1.9c-0.1,0.2-0.2,0.9-0.2,1.1  c0,0.2-0.3,0.5-0.3,1.2c0,0.3,0,1.4,0,2.3c0,0.8,0.3,1.4,0.5,1.5v1.9c0,0.4,0.4,0.8,0.8,0.8h1.4c0.4,0,0.8-0.4,0.8-0.8v-2  c3.3,0,9,0,12.3,0v2c0,0.4,0.3,0.8,0.7,0.8h1.4c0.4,0,0.6-0.4,0.6-0.8v-1.9c0.5-0.1,0.5-0.8,0.5-1.5c0-0.9,0-1.8,0-2.2  C32.7,23.4,32.5,23,32.5,22.8z M18,16.4c0-0.2,0-0.3,0.6-0.4c0.5-0.1,3.3-0.1,4.7-0.1c1.4,0,4.1,0,4.7,0.1c0.6,0.1,0.6,0.2,0.7,0.4  c0.3,1.3,0.6,2.8,0.6,2.8s-2.4-0.1-6-0.1c-3.6,0-5.9,0.1-5.9,0.1S17.6,17.6,18,16.4z M29.2,20.3c-2.8,0.1-6.2,1.1-6.2,1.1  s-2.4-1-5.8-1.1C19.5,19.9,27.7,19.9,29.2,20.3z M15.2,22.5c0-0.4,0.3-0.7,0.8-0.7c0.4,0,1.5,0,1.5,0c0.3,0,1,0.1,1.3,0.8  c0.3,0.7,0.7,1.2,0,1.2c-0.8,0-2.9,0-2.9,0c-0.3,0-0.7-0.2-0.7-0.8C15.1,22.7,15.2,22.5,15.2,22.5z M19,25.8h-3.8  c-0.1,0-0.2,0-0.2-0.1s0.1-0.1,0.2-0.1H19c0.1,0,0.2,0,0.2,0.1S19.2,25.8,19,25.8z M25.9,26.3h-5.3c-0.1,0-0.2,0-0.2,0v-1.1  c0-0.1,0.1-0.1,0.2-0.1h5.3c0.1,0,0,0.1,0,0.1L25.9,26.3C25.9,26.3,25.9,26.3,25.9,26.3z M27.5,22.6c0.3-0.7,1-0.8,1.3-0.8  c0,0,1.1,0,1.5,0c0.4,0,0.8,0.3,0.8,0.7l0.1,0.5c0,0.6-0.4,0.8-0.7,0.8c0,0-2.2,0-2.9,0C26.8,23.8,27.2,23.3,27.5,22.6z M31.2,25.8  h-3.8c-0.1,0-0.2,0-0.2-0.1s0.1-0.1,0.2-0.1h3.8c0.1,0,0.2,0,0.2,0.1S31.3,25.8,31.2,25.8z"
   id="path10"
   style="fill:#1a1a1a" />
<path
   style="fill:#1a1a1a;stroke-width:0.237288"
   d="M 46.033898,50.380467 C 45.418214,50.204216 43.82238,48.773622 39.864407,44.849795 35.278821,40.30377 34.467699,39.594589 34.11636,39.824163 c -0.339046,0.221544 -0.571029,0.109138 -1.355342,-0.656724 l -0.946279,-0.924016 -1.610759,0.74158 c -2.28009,1.049734 -4.537787,1.521494 -7.305675,1.526562 -2.705446,0.005 -4.853504,-0.433359 -7.087128,-1.446133 C 11.015836,36.89112 7.5292089,32.875272 5.8949571,27.644068 5.1772543,25.346717 5.1144038,20.800239 5.7670264,18.38983 7.1196686,13.393957 10.727043,9.0308295 15.305085,6.8535271 18.003664,5.5700914 19.658602,5.223713 23.016949,5.2394345 c 2.681145,0.012551 3.174643,0.085176 5.136794,0.7559428 5.333716,1.8233462 9.356291,5.5594877 11.300839,10.4961477 1.613317,4.095757 1.507157,9.058505 -0.285017,13.324007 l -0.726246,1.728518 0.956366,0.974464 c 0.678753,0.691603 0.909891,1.095574 0.796266,1.391679 -0.123537,0.321933 1.06287,1.645552 5.195051,5.795883 3.491524,3.50686 5.412471,5.610747 5.51987,6.045544 0.442274,1.79056 -0.470865,3.706185 -2.124685,4.457261 -1.081794,0.491291 -1.536469,0.519637 -2.752289,0.171586 z m 2.838258,-4.448024 C 49.006789,45.680882 49.060687,45.328457 48.99193,45.149281 48.731395,44.470336 38.686898,35 38.227327,35 c -0.517769,0 -0.872714,0.771951 -0.570604,1.240974 0.54012,0.838534 10.247656,10.148857 10.581843,10.148857 0.213842,0 0.498958,-0.205824 0.63359,-0.457388 z m -21.55504,-10.09586 c 3.199785,-1.082565 6.243309,-3.668921 7.668661,-6.516748 1.156787,-2.311243 1.434661,-3.555003 1.434661,-6.42153 0,-2.050788 -0.110921,-3.053086 -0.44642,-4.033898 -1.93816,-5.666093 -6.310647,-9.1199536 -11.942732,-9.4336507 -4.083282,-0.2274316 -7.3443,0.9152167 -10.189973,3.5705287 -3.018686,2.816751 -4.3890584,5.905249 -4.3809054,9.873533 0.00781,3.799563 1.1016704,6.675357 3.5420064,9.312015 3.708443,4.006781 9.154893,5.395436 14.314702,3.64975 z"
   id="path11" /><path
   style="fill:#f9f9f9;stroke-width:0.237288"
   d=""
   id="path13" /><path
   style="fill:#f9f9f9;stroke-width:0.237288"
   d="m 14.39548,30.096045 c -0.087,-0.08701 -0.158192,-0.721382 -0.158192,-1.409725 0,-0.688343 -0.120129,-1.325776 -0.266954,-1.416519 -0.181344,-0.112077 -0.232045,-0.934602 -0.158098,-2.564851 0.111638,-2.461213 0.376759,-3.312449 1.354069,-4.347571 0.648931,-0.687318 0.632021,-0.7378 -0.276475,-0.825396 -0.970475,-0.09357 -1.061289,-0.75284 -0.118644,-0.861304 0.358899,-0.04129 0.652543,0.03879 0.652543,0.177967 0,0.139177 0.13795,0.253049 0.306555,0.253049 0.168606,0 0.604799,-0.649752 0.969318,-1.443894 1.132041,-2.466265 0.810608,-2.352716 6.660047,-2.352716 5.927625,0 5.969608,0.0153 6.641587,2.420126 0.437863,1.566987 0.70285,1.817076 1.326912,1.252306 0.504097,-0.456201 1.180327,-0.321351 1.180327,0.235375 0,0.257099 -0.242906,0.363379 -0.830509,0.363379 -0.45678,0 -0.830508,0.05027 -0.830508,0.111707 0,0.06144 0.347034,0.604044 0.771186,1.20579 0.763325,1.08293 0.770953,1.121098 0.748309,3.744225 -0.01258,1.457578 -0.09786,3.077261 -0.189511,3.599295 -0.366767,2.089113 -0.320718,2.016949 -1.287048,2.016949 -1.179254,0 -1.466665,-0.334796 -1.466665,-1.708474 V 27.40678 h -6.169492 -6.169491 v 0.964752 c 0,1.48914 -0.315899,1.882705 -1.511174,1.882705 -0.560945,0 -1.091086,-0.07119 -1.178092,-0.158192 z m 11.706215,-4.350282 v -0.711865 h -2.966102 -2.966102 v 0.711865 0.711864 h 2.966102 2.966102 z m -6.881356,0 c 0,-0.140616 -0.870057,-0.237288 -2.135593,-0.237288 -1.265537,0 -2.135594,0.09667 -2.135594,0.237288 0,0.140615 0.870057,0.237288 2.135594,0.237288 1.265536,0 2.135593,-0.09667 2.135593,-0.237288 z m 12.338983,0 c 0,-0.141541 -0.909604,-0.237288 -2.254237,-0.237288 -1.344633,0 -2.254238,0.09575 -2.254238,0.237288 0,0.14154 0.909605,0.237288 2.254238,0.237288 1.344633,0 2.254237,-0.09575 2.254237,-0.237288 z M 19.220339,23.404882 c 0,-0.243417 -0.221309,-0.723926 -0.491799,-1.067797 -0.431884,-0.549052 -0.662131,-0.625221 -1.889956,-0.625221 -1.609254,0 -2.075362,0.429223 -1.65805,1.526837 0.221915,0.583682 0.309881,0.608757 2.135627,0.608757 1.700092,0 1.904178,-0.04744 1.904178,-0.442576 z m 12.02654,0.05888 c 0.08098,-0.211034 0.04879,-0.664848 -0.07154,-1.008475 -0.199929,-0.57094 -0.343957,-0.630807 -1.671453,-0.694757 -1.333164,-0.06422 -1.493819,-0.01767 -1.952853,0.565899 -0.275101,0.349733 -0.500183,0.835038 -0.500183,1.078455 0,0.397325 0.206984,0.442576 2.024397,0.442576 1.645675,0 2.051941,-0.07178 2.171635,-0.383698 z m -5.501116,-2.565899 c 0.913559,-0.200308 2.06144,-0.366051 2.550847,-0.368317 0.489407,-0.0023 0.889831,-0.09718 0.889831,-0.21092 0,-0.536519 -11.649888,-0.569557 -11.980896,-0.03398 -0.05858,0.09479 0.664423,0.240881 1.606682,0.324646 0.942258,0.08377 2.193705,0.31044 2.780993,0.503722 1.140276,0.375274 1.558586,0.3536 4.152543,-0.215155 z m 3.674259,-1.751354 c -0.01619,-0.714155 -0.724568,-2.994059 -0.980692,-3.156362 -0.450714,-0.285615 -9.625453,-0.263635 -10.163554,0.02435 -0.39055,0.209016 -0.953742,1.959273 -0.953742,2.963989 0,0.270525 1.060329,0.328308 6.050847,0.329743 3.327966,9.49e-4 6.04918,-0.07182 6.047141,-0.161718 z"
   id="path15" /><path
   style="fill:#f9f9f9;stroke-width:0.237288"
   d="m 46.039897,50.381727 c -0.606758,-0.174035 -2.216105,-1.615332 -6.093742,-5.457431 -4.48415,-4.443056 -5.346092,-5.196548 -5.785097,-5.057213 -0.399128,0.126679 -0.722974,-0.03851 -1.431092,-0.729967 l -0.915227,-0.893693 -1.610759,0.74158 c -2.28009,1.049734 -4.537787,1.521494 -7.305675,1.526562 -2.705446,0.005 -4.853504,-0.433359 -7.087128,-1.446133 C 11.015836,36.89112 7.5292089,32.875272 5.8949571,27.644068 5.18126,25.359539 5.1152495,20.810482 5.7606707,18.38983 7.0850986,13.422564 10.713031,9.0374937 15.305085,6.8535271 18.003664,5.5700914 19.658602,5.223713 23.016949,5.2394345 c 2.681145,0.012551 3.174643,0.085176 5.136794,0.7559428 5.333716,1.8233462 9.356291,5.5594877 11.300839,10.4961477 1.613317,4.095757 1.507157,9.058505 -0.285017,13.324007 l -0.726246,1.728518 0.956366,0.974464 c 0.669459,0.68213 0.90917,1.097458 0.799044,1.384439 -0.119826,0.312259 1.117943,1.693618 5.193412,5.795881 3.469544,3.492355 5.40922,5.620369 5.517091,6.052786 0.445703,1.786661 -0.468414,3.705817 -2.123045,4.457261 -1.0809,0.490885 -1.537309,0.519611 -2.74629,0.172846 z m 2.843141,-4.469617 c 0.163836,-0.30613 0.17595,-0.620169 0.03373,-0.874312 -0.449488,-0.803187 -10.33195,-10.0546 -10.669331,-9.988034 -0.192009,0.03788 -0.467334,0.259911 -0.611831,0.493393 -0.227583,0.367738 0.439527,1.121455 4.988034,5.635594 2.887915,2.866094 5.420176,5.21108 5.627245,5.21108 0.20707,0 0.49154,-0.214974 0.632157,-0.477721 z M 25.487697,36.305294 C 33.658793,34.574253 38.359027,26.551502 35.854714,18.610003 33.781018,12.034046 26.520855,8.0191473 19.804091,9.7339434 15.112894,10.931611 11.265047,14.651157 9.8677405,19.338983 c -0.5123587,1.718913 -0.5191888,5.191142 -0.014064,7.149939 0.9265465,3.593009 3.7711575,7.081002 7.0414455,8.634055 3.053276,1.449994 5.645426,1.806667 8.592575,1.182317 z"
   id="path17" /></svg>
