<?xml version="1.0" encoding="UTF-8" standalone="no"?>
<svg
   xmlns:dc="http://purl.org/dc/elements/1.1/"
   xmlns:cc="http://creativecommons.org/ns#"
   xmlns:rdf="http://www.w3.org/1999/02/22-rdf-syntax-ns#"
   xmlns:svg="http://www.w3.org/2000/svg"
   xmlns="http://www.w3.org/2000/svg"
   xmlns:sodipodi="http://sodipodi.sourceforge.net/DTD/sodipodi-0.dtd"
   xmlns:inkscape="http://www.inkscape.org/namespaces/inkscape"
   version="1.1"
   id="Layer_1"
   x="0px"
   y="0px"
   viewBox="0 0 512 512"
   style="enable-background:new 0 0 512 512;"
   xml:space="preserve"
   sodipodi:docname="gearbox.svg"
   inkscape:version="1.0.1 (3bc2e813f5, 2020-09-07)"><metadata
   id="metadata49"><rdf:RDF><cc:Work
       rdf:about=""><dc:format>image/svg+xml</dc:format><dc:type
         rdf:resource="http://purl.org/dc/dcmitype/StillImage" /></cc:Work></rdf:RDF></metadata><defs
   id="defs47" /><sodipodi:namedview
   pagecolor="#ffffff"
   bordercolor="#666666"
   borderopacity="1"
   objecttolerance="10"
   gridtolerance="10"
   guidetolerance="10"
   inkscape:pageopacity="0"
   inkscape:pageshadow="2"
   inkscape:window-width="1920"
   inkscape:window-height="1026"
   id="namedview45"
   showgrid="false"
   inkscape:zoom="1.3964844"
   inkscape:cx="256"
   inkscape:cy="255.28392"
   inkscape:window-x="1920"
   inkscape:window-y="28"
   inkscape:window-maximized="1"
   inkscape:current-layer="Layer_1" />
<g
   id="g6">
	<g
   id="g4">
		<path
   d="M256,0C114.84,0,0,114.841,0,256s114.84,256,256,256s256-114.841,256-256S397.16,0,256,0z M256,491.52    C126.135,491.52,20.48,385.866,20.48,256S126.135,20.48,256,20.48S491.52,126.134,491.52,256S385.865,491.52,256,491.52z"
   id="path2" />
	</g>
</g>
<g
   id="g12">
	<g
   id="g10">
		<path
   d="M389.12,92.16c-16.94,0-30.72,13.743-30.72,30.635v92.245h-30.72v-92.245c0-16.892-13.78-30.635-30.72-30.635    c-16.94,0-30.72,13.743-30.72,30.635v92.245h-30.72v-92.245c0-16.892-13.78-30.635-30.72-30.635    c-16.94,0-30.72,13.743-30.72,30.635v92.245h-30.72v-51.281c0-16.894-13.78-30.639-30.72-30.639    c-16.94,0-30.72,13.745-30.72,30.639V276.48c0,5.655,4.585,10.24,10.24,10.24h81.92v102.486c0,16.891,13.78,30.634,30.72,30.634    c16.94,0,30.72-13.743,30.72-30.634V286.72h30.72v102.486c0,16.891,13.78,30.634,30.72,30.634c16.94,0,30.72-13.743,30.72-30.634    V286.72h30.72v102.486c0,16.891,13.78,30.634,30.72,30.634s30.72-13.743,30.72-30.634V122.795    C419.84,105.903,406.06,92.16,389.12,92.16z M399.36,389.206c0,5.694-4.497,10.154-10.24,10.154    c-5.648,0-10.24-4.555-10.24-10.154V276.48c0-5.655-4.585-10.24-10.24-10.24h-51.2c-5.655,0-10.24,4.585-10.24,10.24v112.726    c0,5.694-4.497,10.154-10.24,10.154c-5.648,0-10.24-4.555-10.24-10.154V276.48c0-5.655-4.585-10.24-10.24-10.24h-51.2    c-5.655,0-10.24,4.585-10.24,10.24v112.726c0,5.694-4.497,10.154-10.24,10.154c-5.648,0-10.24-4.555-10.24-10.154V276.48    c0-5.655-4.585-10.24-10.24-10.24H102.4V163.759c0-5.696,4.497-10.159,10.24-10.159c5.648,0,10.24,4.558,10.24,10.159v61.521    c0,5.655,4.585,10.24,10.24,10.24h51.2c5.655,0,10.24-4.585,10.24-10.24V122.795c0-5.695,4.497-10.155,10.24-10.155    c5.648,0,10.24,4.555,10.24,10.155V225.28c0,5.655,4.585,10.24,10.24,10.24h51.2c5.655,0,10.24-4.585,10.24-10.24V122.795    c0-5.695,4.497-10.155,10.24-10.155c5.648,0,10.24,4.555,10.24,10.155V225.28c0,5.655,4.585,10.24,10.24,10.24h51.2    c5.655,0,10.24-4.585,10.24-10.24V122.795c0-5.695,4.497-10.155,10.24-10.155c5.648,0,10.24,4.555,10.24,10.155V389.206z"
   id="path8" />
	</g>
</g>
<g
   id="g14">
</g>
<g
   id="g16">
</g>
<g
   id="g18">
</g>
<g
   id="g20">
</g>
<g
   id="g22">
</g>
<g
   id="g24">
</g>
<g
   id="g26">
</g>
<g
   id="g28">
</g>
<g
   id="g30">
</g>
<g
   id="g32">
</g>
<g
   id="g34">
</g>
<g
   id="g36">
</g>
<g
   id="g38">
</g>
<g
   id="g40">
</g>
<g
   id="g42">
</g>
<path
   style="fill:#f9f9f9;stroke-width:0.716084"
   d="m 112.24615,286.61303 c 11.32308,-0.11079 29.85175,-0.11079 41.17483,0 11.32308,0.11078 2.05874,0.20142 -20.58741,0.20142 -22.64616,0 -31.91049,-0.0906 -20.58742,-0.20142 z"
   id="path53" /><path
   style="fill:#f9f9f9;stroke-width:0.716084"
   d="m 198.74573,418.84295 c -7.66369,-1.50228 -17.21161,-8.65608 -20.71291,-15.5192 -3.65275,-7.15998 -3.66639,-7.39823 -3.66639,-64.05042 V 286.43357 H 132.447 c -40.574502,0 -42.009949,-0.0462 -44.740492,-1.4392 -5.66959,-2.89241 -5.332737,0.92806 -5.552694,-62.97669 -0.116138,-33.74189 0.08486,-58.92257 0.4939,-61.87424 1.38606,-10.00199 7.826498,-18.99295 16.687712,-23.29634 15.343664,-7.45155 32.832104,-1.36138 40.473384,14.09444 l 2.69189,5.44481 0.2089,29.57746 0.20891,29.57745 h 15.70061 15.70061 l 0.20237,-49.58881 0.20238,-49.58881 1.66319,-4.11898 c 3.19236,-7.90598 10.02791,-14.664005 18.02911,-17.824598 5.53084,-2.184764 15.2356,-2.184764 20.76644,0 8.0012,3.160593 14.83675,9.918618 18.02911,17.824598 l 1.66319,4.11898 0.20238,49.58881 0.20237,49.58881 h 15.73049 15.7305 v -48.56374 c 0,-42.54268 0.14286,-49.04595 1.15226,-52.45314 4.26254,-14.38793 19.47495,-24.138029 33.60015,-21.535358 13.51192,2.489669 23.50949,12.717928 25.43295,26.019798 0.35914,2.48361 0.65945,25.21943 0.66737,50.52405 l 0.0144,46.00839 H 343.0042 358.4 l 0.0142,-45.65035 c 0.008,-26.78654 0.31233,-47.72167 0.73572,-50.66294 1.95288,-13.56696 11.76109,-23.732363 25.30662,-26.228224 13.97183,-2.574412 29.08612,6.771232 33.3673,20.632054 1.42583,4.61628 1.44331,6.34146 1.44331,142.3682 0,136.02673 -0.0175,137.75192 -1.44331,142.3682 -2.38752,7.72991 -8.50885,14.65102 -15.98525,18.07383 -6.08016,2.7836 -11.68335,3.60825 -17.38205,2.55823 -13.54552,-2.49586 -23.35373,-12.66127 -25.30662,-26.22823 -0.42945,-2.98347 -0.72727,-25.5212 -0.73571,-55.67553 L 358.4,286.43357 h -15.3958 -15.39581 l -0.0144,51.02098 c -0.008,28.06153 -0.30823,53.05302 -0.66737,55.53663 -1.91497,13.24317 -11.92597,23.53104 -25.29475,25.99433 -8.57492,1.58 -18.14077,-1.38271 -24.93973,-7.72424 -4.52497,-4.22053 -6.58866,-7.38934 -8.49212,-13.03966 -1.4162,-4.20391 -1.45877,-5.89824 -1.45877,-58.05916 v -53.72888 h -15.73244 -15.73245 l -0.20042,54.6014 -0.20043,54.60139 -1.68773,4.18456 c -3.64521,9.03791 -12.33616,16.5777 -21.51524,18.66543 -5.45571,1.24088 -8.05061,1.31246 -12.92682,0.3566 z m 11.38075,-20.5766 c 1.34188,-0.71966 3.0286,-2.40638 3.74826,-3.74827 1.23657,-2.30571 1.30848,-5.64518 1.30848,-60.76474 0,-57.42866 0.0227,-58.37178 1.47521,-61.37233 1.07105,-2.21249 2.31009,-3.45153 4.52258,-4.52258 2.90967,-1.40855 4.25174,-1.47521 29.69744,-1.47521 28.82161,0 29.52278,0.0828 33.04882,3.90345 l 1.79021,1.93977 0.35804,59.91476 c 0.35027,58.61381 0.38967,59.96917 1.81458,62.42104 4.0358,6.94454 14.77162,6.51872 18.41369,-0.73036 1.16125,-2.31133 1.2521,-6.71228 1.25314,-60.69684 10e-4,-63.97777 -0.17275,-61.41789 4.39562,-64.67614 l 2.40829,-1.71764 h 28.76987 c 27.97084,0 28.82601,0.0412 30.7916,1.48307 1.11196,0.81569 2.58516,2.58799 3.27378,3.93846 1.16161,2.27805 1.2522,6.67047 1.25426,60.81623 0.002,54.13177 0.0929,58.54142 1.25426,60.85286 3.5082,6.98264 13.59951,7.73225 18.15257,1.34844 l 1.71765,-2.40829 V 256 119.22797 l -1.71765,-2.40829 c -4.55306,-6.38381 -14.64437,-5.6342 -18.15257,1.34844 -1.15838,2.30563 -1.25212,6.47419 -1.25315,55.73205 -10e-4,58.9765 0.18781,56.54976 -4.6374,59.5319 -2.23903,1.3838 -3.51122,1.44345 -30.7839,1.44345 -31.02044,0 -30.49865,0.0647 -33.68191,-4.17792 -1.39547,-1.85989 -1.44134,-3.31308 -1.79021,-56.72136 -0.33494,-51.27589 -0.44141,-54.93977 -1.65009,-56.78384 -4.18276,-6.38155 -14.24628,-6.24451 -18.01785,0.24536 -1.42088,2.44494 -1.4653,3.83937 -1.81458,56.96085 -0.33143,50.40848 -0.45165,54.59739 -1.61793,56.37671 -2.71922,4.14857 -2.86797,4.16558 -34.49674,3.94446 l -28.93496,-0.2023 -1.91296,-1.79021 c -1.05213,-0.98461 -2.28617,-2.43468 -2.74232,-3.22237 -0.59994,-1.03601 -0.92839,-16.61907 -1.18739,-56.3344 l -0.35805,-54.90223 -1.7902,-1.91546 c -2.49113,-2.66542 -5.18728,-3.92764 -8.3896,-3.92764 -3.65858,0 -7.3219,2.07671 -8.92011,5.05675 -1.23314,2.29933 -1.30871,5.47052 -1.31247,55.08313 -0.002,32.46385 -0.27522,53.61967 -0.71155,55.19034 -0.38916,1.40085 -1.69717,3.4954 -2.90669,4.65455 l -2.19913,2.10754 -28.94561,0.2023 c -31.63938,0.22111 -31.78741,0.20419 -34.5074,-3.94351 -1.14425,-1.74488 -1.29276,-5.0462 -1.61793,-35.96832 -0.3542,-33.68106 -0.37524,-34.07475 -1.95702,-36.61816 -4.23682,-6.81255 -14.61421,-6.34015 -18.27124,0.83174 -1.15822,2.2714 -1.25212,6.38584 -1.25315,54.90854 l -0.001,52.45315 h 41.66482 c 40.05219,0 41.77812,0.0548 44.59187,1.41695 1.60987,0.77933 3.56448,2.47108 4.34356,3.75945 1.37341,2.27117 1.42743,4.16585 1.77457,62.2397 0.35042,58.6213 0.38855,59.93152 1.79021,61.50673 3.80179,4.27251 9.29456,5.44068 13.91949,2.9603 z"
   id="path55" /><path
   style="fill:#f9f9f9;stroke-width:0.716084"
   d="M 243.46853,511.22636 C 202.71922,509.42753 161.20176,496.89957 125.67273,475.68131 107.729,464.96515 93.514043,453.96418 77.782589,438.61909 56.11318,417.48189 41.000543,396.77837 27.328262,369.4993 14.917552,344.73733 7.3511585,320.95899 3.2534256,293.84112 -6.6363756,228.39264 9.2581652,162.53956 48.252107,107.40593 59.530085,91.459964 79.69005,70.082264 95.239161,57.580675 138.55813,22.751932 190.36181,2.98389 244.00559,0.81208628 287.99146,-0.96871031 327.77011,7.1179042 366.63497,25.741453 c 26.93392,12.906399 50.08109,29.645391 71.98252,52.054534 20.72247,21.202851 34.86023,41.392653 47.96008,68.490633 29.79332,61.62962 33.10133,132.90419 9.19657,198.14974 -6.7546,18.43597 -19.6508,42.66004 -32.02624,60.15771 -15.23669,21.54319 -38.69547,44.74946 -61.4211,60.75997 -37.72623,26.57865 -86.83894,43.78669 -130.14649,45.60054 -4.76378,0.19952 -10.59486,0.4561 -12.95793,0.57016 -2.36308,0.11407 -9.45231,-0.0202 -15.75385,-0.29838 z M 272.903,491.23069 c 48.22936,-3.75512 92.48107,-20.98222 129.476,-50.40471 43.4149,-34.52838 73.60866,-83.36248 84.48532,-136.64296 3.83475,-18.78495 4.34905,-24.48286 4.34905,-48.18302 0,-23.70016 -0.5143,-29.39807 -4.34905,-48.18302 C 470.3549,126.94386 410.40466,59.221046 331.78778,32.634696 306.368,24.038337 284.0549,20.451377 256,20.451377 c -28.08748,0 -50.36357,3.585318 -75.86999,12.211209 C 102.97421,58.755521 43.525891,124.82335 25.883817,204.08392 21.577221,223.43217 20.816496,231.226 20.816496,256 c 0,24.774 0.760725,32.56783 5.067321,51.91608 15.904874,71.45586 66.137649,132.92146 133.388323,163.216 35.11897,15.82013 75.91179,23.0354 113.63086,20.09861 z"
   id="path57" /></svg>
