<?xml version="1.0" encoding="UTF-8" standalone="no"?>
<svg
   xmlns:dc="http://purl.org/dc/elements/1.1/"
   xmlns:cc="http://creativecommons.org/ns#"
   xmlns:rdf="http://www.w3.org/1999/02/22-rdf-syntax-ns#"
   xmlns:svg="http://www.w3.org/2000/svg"
   xmlns="http://www.w3.org/2000/svg"
   xmlns:sodipodi="http://sodipodi.sourceforge.net/DTD/sodipodi-0.dtd"
   xmlns:inkscape="http://www.inkscape.org/namespaces/inkscape"
   version="1.1"
   id="svg2"
   xml:space="preserve"
   width="1461.3333"
   height="1040"
   viewBox="0 0 1461.3333 1040"
   sodipodi:docname="vectorkey.svg"
   inkscape:version="1.0.1 (3bc2e813f5, 2020-09-07)"><metadata
     id="metadata8"><rdf:RDF><cc:Work
         rdf:about=""><dc:format>image/svg+xml</dc:format><dc:type
           rdf:resource="http://purl.org/dc/dcmitype/StillImage" /><dc:title /></cc:Work></rdf:RDF></metadata><defs
     id="defs6"><clipPath
       clipPathUnits="userSpaceOnUse"
       id="clipPath20"><path
         d="M 0,780 H 1096 V 0 H 0 Z"
         id="path18"
         inkscape:connector-curvature="0" /></clipPath></defs><sodipodi:namedview
     pagecolor="#ffffff"
     bordercolor="#666666"
     borderopacity="1"
     objecttolerance="10"
     gridtolerance="10"
     guidetolerance="10"
     inkscape:pageopacity="0"
     inkscape:pageshadow="2"
     inkscape:window-width="1920"
     inkscape:window-height="1026"
     id="namedview4"
     showgrid="false"
     inkscape:zoom="0.45384615"
     inkscape:cx="528.40617"
     inkscape:cy="566.61952"
     inkscape:window-x="1920"
     inkscape:window-y="28"
     inkscape:window-maximized="1"
     inkscape:current-layer="g14"
     inkscape:document-rotation="0" /><g
     id="g10"
     inkscape:groupmode="layer"
     inkscape:label="CarDealership1_FreeVector"
     transform="matrix(1.3333333,0,0,-1.3333333,0,1040)"><g
       id="g14"><g
         id="g16"
         clip-path="url(#clipPath20)"
         transform="matrix(4.8633071,0,0,6.0471535,-960.86157,-762.23166)"><g
           id="g22"
           transform="translate(368.1022,-9.8026)" /><g
           id="g26"
           transform="translate(304.5577,464.2652)" /><g
           id="g30"
           transform="translate(1155.3965,313.8602)" /><g
           id="g34"
           transform="translate(416.2398,592.4822)" /><g
           id="g38"
           transform="translate(353.9675,614.9936)" /><g
           id="g66"
           transform="translate(889.7415,418.042)" /><g
           id="g70"
           transform="translate(336.9884,434.7959)" /><g
           id="g74"
           transform="translate(364.249,416.4309)" /><g
           id="g78"
           transform="translate(330.1449,391.3722)" /><g
           id="g82"
           transform="translate(308.8367,433.3006)" /><g
           id="g86"
           transform="translate(310.509,433.5077)" /><g
           id="g90"
           transform="translate(317.1425,438.9114)" /><g
           id="g94"
           transform="translate(421.9034,187.888)"><path
             d="M 0,0 C -2.946,8.441 -12.183,12.902 -20.618,9.959 L -83.292,-10.95 c -1.645,-8.129 -6.426,-12.278 -10.567,-13.753 -27.834,-9.917 -52.942,6.166 -52.942,6.166 53.631,-18.766 55.344,3.874 55.344,3.874 1.41,8.381 -3.94,16.513 -12.328,18.45 -46.837,10.807 -104.56,0.595 -106.995,0.155 -7.687,-1.388 -13.287,-8.071 -13.311,-15.885 -0.023,-7.811 1.331,-24.856 20.34,-30.965 l 97.091,-7.336 c 0.232,-0.045 0.464,-0.082 0.696,-0.116 2.751,-0.39 5.531,-0.585 8.314,-0.585 6.232,0 12.478,0.975 18.399,2.896 0.114,0.034 0.224,0.074 0.338,0.111 l 68.952,27.317 C -1.515,-17.677 2.944,-8.446 0,0"
             style="fill:#1a1a1a;fill-opacity:1;fill-rule:nonzero;stroke:none"
             id="path96"
             inkscape:connector-curvature="0" /></g><g
           id="g98"
           transform="translate(287.1824,213.3704)"><path
             d="m 0,0 c 0,-1.194 -0.968,-2.162 -2.162,-2.162 -1.195,0 -2.163,0.968 -2.163,2.162 v 10.694 c 0,1.195 0.968,2.163 2.163,2.163 C -0.968,12.857 0,11.889 0,10.694 Z M 21.858,24.519 C 9.729,26.561 -6.706,20.982 -6.706,11.28 V -1.187 h 0.087 c 1.231,-8.992 16.834,-14.057 28.477,-12.097 7.091,1.194 12.711,4.993 12.711,12.097 v 13.609 c 0,7.104 -5.62,10.903 -12.711,12.097"
             style="fill:#1a1a1a;fill-opacity:1;fill-rule:nonzero;stroke:none"
             id="path100"
             inkscape:connector-curvature="0" /></g><g
           id="g102"
           transform="translate(254.4047,243.7866)"><path
             d="m 0,0 c -6.872,-6.872 -6.872,-18.052 -0.001,-24.923 6.871,-6.871 18.052,-6.871 24.924,0 6.871,6.872 6.871,18.053 0,24.924 C 18.052,6.872 6.872,6.872 0,0 m 26.067,-26.067 c -7.503,-7.502 -19.709,-7.502 -27.212,0 -7.502,7.502 -7.502,19.708 0.001,27.211 7.503,7.503 19.709,7.503 27.211,0.001 7.502,-7.503 7.502,-19.709 0,-27.212"
             style="fill:#1a1a1a;fill-opacity:1;fill-rule:nonzero;stroke:none"
             id="path104"
             inkscape:connector-curvature="0" /></g><g
           id="g106"
           transform="translate(365.5045,224.8244)"><path
             d="m 0,0 c -1.889,0 -2.118,-0.72 -4.465,-0.72 -2.348,0 -2.062,0.72 -4.81,0.72 -2.747,0 -3.263,-0.72 -5.953,-0.72 -2.691,0 -2.348,0.72 -5.21,0.72 h -13.053 c -2.462,0 -2.004,-0.72 -4.809,-0.72 -2.805,0 -2.061,0.72 -5.702,0.72 v -3.01 h -1.168 v -5.495 h 1.168 v -3.168 c 3.641,0 2.897,0.72 5.702,0.72 2.805,0 2.347,-0.72 4.809,-0.72 h 13.053 c 2.862,0 2.519,0.72 5.21,0.72 2.69,0 3.206,-0.72 5.953,-0.72 2.748,0 2.462,0.72 4.81,0.72 2.347,0 2.576,-0.72 4.465,-0.72 0.745,0 1.701,0.485 2.586,1.074 1.596,1.059 2.555,2.847 2.555,4.763 0,1.915 -0.959,3.703 -2.555,4.763 C 1.701,-0.485 0.745,0 0,0"
             style="fill:#1a1a1a;fill-opacity:1;fill-rule:nonzero;stroke:none"
             id="path108"
             inkscape:connector-curvature="0" /></g></g><path
         style="fill:#f9f9f9;stroke-width:2.20339"
         d="M 786.20278,948.91251 C 779.53753,947.87185 631.30448,933.5616 456.796,917.11199 250.16139,897.63407 136.07287,886.02664 129.65835,883.8288 116.05481,879.16773 90.162362,862.67218 75.695081,849.4499 40.757805,817.51919 16.46781,766.26786 7.2425616,705.0166 2.2614326,671.94428 2.1459433,621.74755 7.0053975,601.93464 17.296745,559.97488 45.319886,525.59108 78.875033,513.75214 107.88259,503.51768 227.71458,485.90382 328.99939,476.98689 c 52.24786,-4.59982 221.54298,-3.93299 267.71187,1.05448 88.1277,9.52012 180.79999,28.89581 204.91525,42.84316 35.54925,20.56033 59.52645,67.79541 59.46537,117.14677 -0.0423,34.24796 -7.24576,53.67411 -27.95264,75.38312 -22.98444,24.0968 -56.71484,35.59186 -104.22459,35.519 -53.78988,-0.0825 -116.75545,-15.16074 -194.7833,-46.64436 -17.69122,-7.13827 -32.16586,-12.2764 -32.16586,-11.41807 0,2.93582 34.12928,23.97123 59.28344,36.53905 85.50323,42.72014 178.27037,51.50005 258.7375,24.48813 36.68671,-12.31532 55.55271,-26.52664 72.62325,-54.70544 7.17756,-11.84822 18.49675,-42.95073 22.26682,-61.18414 1.04282,-5.04354 19.38405,-13.0944 210.0056,-92.18168 191.0921,-79.28249 210.1847,-86.75729 224.3963,-87.8517 46.5594,-3.58546 90.5181,33.74045 104.6056,88.82196 8.533,33.36383 4.466,78.22121 -9.6007,105.89074 -8.3486,16.42178 -22.5757,34.41269 -34.05,43.05784 -13.3338,10.04614 -457.66573,229.04791 -484.58033,238.83933 -30.95983,11.26307 -58.80129,16.32317 -95.38239,17.33546 -17.57203,0.48624 -37.40254,0.0326 -44.0678,-1.00803 z"
         id="path31"
         transform="matrix(0.75000002,0,0,-0.75000002,0,780.00002)" /><path
         style="fill:#f9f9f9;stroke-width:2.20339"
         d="m 658.40617,442.92359 c -18.13883,-3.43869 -40.4692,-10.95329 -54.96006,-18.49514 -28.38318,-14.77219 -46.22227,-31.94904 -57.13319,-55.01232 -5.09041,-10.75999 -5.82227,-15.39244 -6.52782,-41.31958 l -0.79464,-29.20095 -15.51009,14.35998 C 496.7482,338.00546 464.98872,348.79826 434.33939,343.54824 361.53554,331.07748 312.72462,244.76893 329.16877,157.58326 341.08134,94.423731 381.80559,48.02185 433.41984,38.797869 c 28.59904,-5.110934 62.73242,5.40801 87.07299,26.833435 21.97875,19.346462 42.02126,55.352106 47.67662,85.649226 4.95992,26.57164 3.8402,25.36071 15.67194,16.94864 14.06992,-10.00334 37.28074,-20.40095 58.18685,-26.06561 23.70806,-6.42387 68.58957,-6.98993 87.9881,-1.10972 43.9019,13.30781 70.41939,44.06215 73.21975,84.91849 l 1.19265,17.4003 14.57346,3.53599 c 18.00401,4.36834 26.91743,4.41104 40.81348,0.19553 15.34601,-4.65538 95.2248,-4.65538 110.57082,0 13.79216,4.18399 21.72417,4.15486 43.0088,-0.15796 15.6953,-3.18027 18.2633,-3.18027 29.2031,0 14.7735,4.29479 21.559,4.34268 35.0556,0.24742 11.7238,-3.55734 14.8313,-2.95345 25.5232,4.95999 20.2723,15.00429 23.563,50.60208 6.4766,70.06244 -11.0315,12.56421 -17.9967,15.18569 -31.6471,11.91102 -7.3995,-1.77512 -16.0765,-2.17204 -24.398,-1.11607 -7.1029,0.90135 -18.3678,1.59074 -25.033,1.532 -24.8294,-0.2188 -57.74196,-0.23863 -112.37292,-0.0676 -30.90254,0.0967 -61.54193,-0.5358 -68.08754,-1.40564 -7.22899,-0.96067 -18.14459,-0.4722 -27.80491,1.24428 l -15.90382,2.8258 -1.17712,16.68899 c -2.87871,40.81391 -25.4843,69.53719 -66.11201,84.00377 -11.06386,3.9396 -19.45452,5.00322 -43.45697,5.50874 -16.36017,0.34459 -32.22458,0.15666 -35.25424,-0.41776 z m -81.52542,-93.33797 c 4.16121,-4.16121 4.40678,-7.34463 4.40678,-57.12821 v -52.72144 l -5.89641,-4.63812 -5.89642,-4.63812 -5.79818,17.14769 c -3.18901,9.43122 -6.98054,19.31345 -8.42563,21.96047 -1.72558,3.1608 -2.62743,16.96332 -2.62743,40.21186 0,32.46124 0.36572,35.76481 4.40678,39.80587 2.42373,2.42373 6.88559,4.40678 9.91525,4.40678 3.02966,0 7.49153,-1.98305 9.91526,-4.40678 z M 470.87174,331.82511 c 22.64388,-5.22025 47.59899,-22.28183 62.32575,-42.61153 5.96334,-8.23216 6.22563,-9.65015 6.22563,-33.65767 0,-29.11598 3.72825,-42.68763 16.67845,-60.71337 7.82289,-10.88889 8.07443,-11.81389 6.8317,-25.12198 C 558.4261,121.45427 529.31802,75.994153 491.53315,58.209999 430.72103,29.587633 366.71754,64.43422 341.49799,139.89639 c -5.02384,15.03236 -5.65891,20.53226 -5.76699,49.94347 -0.10546,28.70122 0.55764,35.22566 5.0386,49.57627 14.74327,47.2165 45.64318,80.87688 84.07725,91.58837 12.2426,3.41197 33.16609,3.78505 46.02489,0.82061 z m 88.21425,-95.43301 c 0.0922,-1.05729 -1.31965,-0.688 -3.13745,0.82064 -1.81779,1.50863 -3.22964,5.84402 -3.13745,9.6342 l 0.16764,6.89122 2.96981,-7.71186 c 1.6334,-4.24153 3.04526,-8.57692 3.13745,-9.6342 z"
         id="path33"
         transform="matrix(0.75000002,0,0,-0.75000002,0,780.00002)" /></g></g></svg>
