<?xml version="1.0" encoding="UTF-8" standalone="no"?>
<svg
   xmlns:dc="http://purl.org/dc/elements/1.1/"
   xmlns:cc="http://creativecommons.org/ns#"
   xmlns:rdf="http://www.w3.org/1999/02/22-rdf-syntax-ns#"
   xmlns:svg="http://www.w3.org/2000/svg"
   xmlns="http://www.w3.org/2000/svg"
   xmlns:sodipodi="http://sodipodi.sourceforge.net/DTD/sodipodi-0.dtd"
   xmlns:inkscape="http://www.inkscape.org/namespaces/inkscape"
   version="1.1"
   id="svg2"
   xml:space="preserve"
   width="1461.3333"
   height="1040"
   viewBox="0 0 1461.3333 1040"
   sodipodi:docname="vectorpaperasse.svg"
   inkscape:version="1.0.1 (3bc2e813f5, 2020-09-07)"><metadata
     id="metadata8"><rdf:RDF><cc:Work
         rdf:about=""><dc:format>image/svg+xml</dc:format><dc:type
           rdf:resource="http://purl.org/dc/dcmitype/StillImage" /><dc:title /></cc:Work></rdf:RDF></metadata><defs
     id="defs6"><clipPath
       clipPathUnits="userSpaceOnUse"
       id="clipPath20"><path
         d="M 0,780 H 1096 V 0 H 0 Z"
         id="path18"
         inkscape:connector-curvature="0" /></clipPath></defs><sodipodi:namedview
     pagecolor="#ffffff"
     bordercolor="#666666"
     borderopacity="1"
     objecttolerance="10"
     gridtolerance="10"
     guidetolerance="10"
     inkscape:pageopacity="0"
     inkscape:pageshadow="2"
     inkscape:window-width="1920"
     inkscape:window-height="1026"
     id="namedview4"
     showgrid="false"
     inkscape:zoom="0.32091769"
     inkscape:cx="398.17818"
     inkscape:cy="718.14689"
     inkscape:window-x="1920"
     inkscape:window-y="28"
     inkscape:window-maximized="1"
     inkscape:current-layer="g16"
     inkscape:document-rotation="0" /><g
     id="g10"
     inkscape:groupmode="layer"
     inkscape:label="CarDealership1_FreeVector"
     transform="matrix(1.3333333,0,0,-1.3333333,0,1040)"><g
       transform="translate(-118.15261,37.828138)"
       clip-path="url(#clipPath20)"
       id="g16"><g
         transform="translate(368.1022,-9.8026)"
         id="g22" /><g
         transform="translate(304.5577,464.2652)"
         id="g26" /><g
         transform="translate(1155.3965,313.8602)"
         id="g30" /><g
         transform="translate(416.2398,592.4822)"
         id="g34" /><g
         transform="translate(353.9675,614.9936)"
         id="g38" /><g
         transform="translate(843.7579,567.9616)"
         id="g42" /><g
         transform="translate(774.7184,656.1884)"
         id="g46" /><g
         transform="translate(803.7539,655.5005)"
         id="g50" /><g
         transform="translate(818.0292,487.1814)"
         id="g54" /><g
         transform="translate(845.2899,468.8163)"
         id="g58" /><g
         transform="translate(811.1858,443.7577)"
         id="g62" /><g
         transform="translate(889.7415,418.042)"
         id="g66" /><g
         transform="translate(336.9884,434.7959)"
         id="g70" /><g
         transform="translate(364.249,416.4309)"
         id="g74" /><g
         transform="translate(330.1449,391.3722)"
         id="g78" /><g
         transform="translate(308.8367,433.3006)"
         id="g82" /><g
         transform="translate(310.509,433.5077)"
         id="g86" /><g
         transform="translate(317.1425,438.9114)"
         id="g90" /><g
         transform="translate(421.9034,187.888)"
         id="g94" /><g
         transform="translate(287.1824,213.3704)"
         id="g98" /><g
         transform="translate(254.4047,243.7866)"
         id="g102" /><g
         transform="translate(365.5045,224.8244)"
         id="g106" /><g
         transform="matrix(1.8490413,0,0,1.8412271,274.02865,462.77848)"
         id="g110"><path
           inkscape:connector-curvature="0"
           id="path112"
           style="fill:#1a1a1a;fill-opacity:1;fill-rule:nonzero;stroke:none;stroke-width:2.45951986"
           d="m 329.54239,-184.87513 v -63.3761 l 73.65604,63.3761 z" /></g><g
         transform="matrix(5.3792082,0,0,5.6219934,635.01892,556.16302)"
         id="g114"><path
           inkscape:connector-curvature="0"
           id="path116"
           style="fill:#1a1a1a;fill-opacity:1;fill-rule:nonzero;stroke:none"
           d="m 0,0 c 0.14,-0.412 0.526,-0.689 0.961,-0.689 h 14.68 c 0.435,0 0.821,0.277 0.961,0.689 l 1.849,5.451 c 0.223,0.658 -0.266,1.34 -0.961,1.34 H -0.888 c -0.694,0 -1.183,-0.682 -0.961,-1.34 z" /></g><path
         inkscape:connector-curvature="0"
         id="path118"
         style="fill:#1a1a1a;fill-opacity:1;fill-rule:nonzero;stroke:none;stroke-width:4.23140955"
         d="M 959.57748,470.95904 H 402.22113 v 10.51643 h 557.35635 z m 0,-95.94542 H 402.22113 v 10.51643 h 557.35635 z m 0,-95.94542 H 402.22113 v 10.51645 h 557.35635 z m 0,-95.94542 H 402.22113 v 10.51645 H 959.57748 Z M 563.16801,643.1301 h 32.86487 l -11.8648,-14.15958 h 96.68301 96.67842 L 765.6693,643.1301 h 32.86487 c 5.05472,0 9.15364,-3.17167 9.15364,-7.0798 0,-3.90811 -4.09892,-7.07978 -9.15364,-7.07978 h -21.00466 l 26.64297,-26.90089 H 765.4717 c -3.29016,0 -6.24029,-1.71831 -7.42124,-4.32113 l -10.04052,-16.75069 h 56.16254 v -32.28963 l -6.00133,-21.51213 h -21.98344 v 21.51213 H 585.51447 v -21.51213 h -21.98344 l -6.00592,21.51213 v 32.28963 h 56.16713 l -10.04511,16.75069 c -1.18097,2.60282 -4.13108,4.32113 -7.41665,4.32113 h -38.70537 l 26.64297,26.90089 h -21.00007 c -5.05472,0 -9.15364,3.17167 -9.15364,7.07978 0,3.90813 4.09892,7.0798 9.15364,7.0798 m 54.9494,29.53875 c 0,0 15.88561,3.50677 62.73368,3.50677 46.84807,0 62.73367,-3.50677 62.73367,-3.50677 l 18.43594,-34.9236 H 599.68146 Z m 405.29199,71.67072 H 338.2927 V 5.6915629 h 545.07344 l -7.82561,81.4858031 h -473.3194 v 10.51645 h 472.30851 l -3.57513,37.265334 152.45489,-10.52034 z" /><path
         style="fill:#f9f9f9;stroke-width:3.11606"
         d="M 295.34807,490.67423 V -0.10582216 H 750.29339 1205.2387 V 411.32192 822.74969 l -14.8013,-1.66448 c -8.1407,-0.91543 -48.4548,-3.77433 -89.5868,-6.35303 -41.1321,-2.57873 -80.1797,-5.26839 -86.7725,-5.97698 l -11.9868,-1.2884 2.1839,24.67246 2.1841,24.67247 H 691.4125 376.36573 v 9.34819 9.34819 h 316.28048 c 299.10698,0 316.28549,0.29602 316.37269,5.45311 0.051,2.99921 2.125,25.08431 4.6094,49.07801 2.4844,23.99369 4.5462,45.37767 4.5819,47.51997 0.051,3.09406 -74.27086,3.89508 -361.39872,3.89508 H 295.34807 Z M 1124.221,738.4013 v -9.34819 H 750.29339 376.36573 v 9.34819 9.34819 H 750.29339 1124.221 Z m 0,-127.75862 v -9.34819 H 750.29339 376.36573 v 9.34819 9.3482 H 750.29339 1124.221 Z m 0,-127.75861 v -9.34819 H 750.29339 376.36573 v 9.34819 9.34819 H 750.29339 1124.221 Z m 0,-127.75862 v -9.34819 H 750.29339 376.36573 v 9.34819 9.34819 H 750.29339 1124.221 Z M 625.65084,272.54976 v -14.02229 h 124.64255 124.64255 v 14.02229 14.02229 h 16.64511 c 16.62339,0 16.64985,-0.0156 20.25442,-12.04677 1.98512,-6.62571 3.6093,-22.75134 3.6093,-35.83473 v -23.78797 h -35.83473 c -19.7091,0 -35.83474,-0.75045 -35.83474,-1.66766 0,-3.10039 10.4376,-18.55982 15.17885,-22.48183 2.95356,-2.44322 14.61007,-3.89508 31.27222,-3.89508 h 26.56354 l -16.74769,-16.95835 -16.74769,-16.95835 16.53322,-0.95902 c 18.62658,-1.08045 26.17877,-7.56785 18.94987,-16.27814 -3.14071,-3.78433 -10.18389,-4.93529 -30.20092,-4.93529 -14.35776,0 -26.10501,0.96129 -26.10501,2.13621 0,1.17492 3.04888,5.38161 6.77529,9.34819 l 6.77532,7.21198 H 750.29339 624.56448 l 6.77532,-7.21198 c 3.72641,-3.96658 6.77529,-8.17327 6.77529,-9.34819 0,-1.17492 -11.74725,-2.13621 -26.10501,-2.13621 -20.01702,0 -27.0602,1.15096 -30.20091,4.93529 -7.2289,8.71029 0.32328,15.19769 18.94986,16.27814 l 16.53322,0.95902 -16.74769,16.95835 -16.74769,16.95835 h 26.56354 c 16.66215,0 28.31866,1.45186 31.27222,3.89508 4.74125,3.92201 15.17885,19.38144 15.17885,22.48183 0,0.91721 -16.12563,1.66766 -35.83474,1.66766 h -35.83473 v 23.78797 c 0,13.08339 1.62418,29.20902 3.6093,35.83473 3.60458,12.03104 3.63102,12.04677 20.25442,12.04677 h 16.64511 z m 232.2947,-137.88582 c -1.14225,-2.99921 -6.85774,-14.01657 -12.70101,-24.48303 -10.53298,-18.866568 -10.76541,-19.046882 -27.08012,-21.006344 -21.29768,-2.557942 -114.44436,-2.557942 -135.74204,0 -16.31471,1.959462 -16.54714,2.139776 -27.08012,21.006344 -18.69233,33.48154 -29.93758,29.93614 94.95114,29.93614 103.21762,0 109.60577,-0.32359 107.65215,-5.45311 z"
         id="path37"
         transform="matrix(0.75000002,0,0,-0.75000002,118.15261,742.17188)" /><path
         style="fill:#f9f9f9;stroke-width:3.11606"
         d="m 692.72631,249.30889 c -3.73836,-6.04879 -14.10239,-38.56305 -14.10239,-44.24232 0,-5.4115 4.06206,-5.74431 70.11144,-5.74431 h 70.11143 l -0.18523,7.01115 c -0.10186,3.85612 -3.26136,15.42451 -7.02108,25.70752 l -6.83586,18.69638 -55.07242,0.85 c -34.43486,0.53146 -55.79696,-0.32234 -57.00589,-2.27842 z"
         id="path39"
         transform="matrix(0.75000002,0,0,-0.75000002,118.15261,742.17188)" /><path
         style="fill:#f9f9f9;stroke-width:3.11606"
         d="m 1021.3909,903.63651 v -74.86936 h 87.3494 87.3493 l -22.691,19.66471 c -12.48,10.8156 -51.7873,44.50681 -87.3493,74.86936 l -64.6584,55.20465 z"
         id="path41"
         transform="matrix(0.75000002,0,0,-0.75000002,118.15261,742.17188)" /></g></g></svg>
