<?xml version="1.0" encoding="UTF-8" standalone="no"?>
<!-- Created with Inkscape (http://www.inkscape.org/) -->

<svg
   xmlns:dc="http://purl.org/dc/elements/1.1/"
   xmlns:cc="http://creativecommons.org/ns#"
   xmlns:rdf="http://www.w3.org/1999/02/22-rdf-syntax-ns#"
   xmlns:svg="http://www.w3.org/2000/svg"
   xmlns="http://www.w3.org/2000/svg"
   xmlns:sodipodi="http://sodipodi.sourceforge.net/DTD/sodipodi-0.dtd"
   xmlns:inkscape="http://www.inkscape.org/namespaces/inkscape"
   version="1.1"
   id="svg2"
   xml:space="preserve"
   width="1461.3333"
   height="1040"
   viewBox="0 0 1461.3333 1040"
   sodipodi:docname="vectorkey.svg"
   inkscape:version="0.92.5 (2060ec1f9f, 2020-04-08)"><metadata
     id="metadata8"><rdf:RDF><cc:Work
         rdf:about=""><dc:format>image/svg+xml</dc:format><dc:type
           rdf:resource="http://purl.org/dc/dcmitype/StillImage" /><dc:title></dc:title></cc:Work></rdf:RDF></metadata><defs
     id="defs6"><clipPath
       clipPathUnits="userSpaceOnUse"
       id="clipPath20"><path
         d="M 0,780 H 1096 V 0 H 0 Z"
         id="path18"
         inkscape:connector-curvature="0" /></clipPath></defs><sodipodi:namedview
     pagecolor="#ffffff"
     bordercolor="#666666"
     borderopacity="1"
     objecttolerance="10"
     gridtolerance="10"
     guidetolerance="10"
     inkscape:pageopacity="0"
     inkscape:pageshadow="2"
     inkscape:window-width="1366"
     inkscape:window-height="708"
     id="namedview4"
     showgrid="false"
     inkscape:zoom="0.45384615"
     inkscape:cx="528.40617"
     inkscape:cy="568.82291"
     inkscape:window-x="0"
     inkscape:window-y="28"
     inkscape:window-maximized="1"
     inkscape:current-layer="g14" /><g
     id="g10"
     inkscape:groupmode="layer"
     inkscape:label="CarDealership1_FreeVector"
     transform="matrix(1.3333333,0,0,-1.3333333,0,1040)"><g
       id="g14"><g
         id="g16"
         clip-path="url(#clipPath20)"
         transform="matrix(4.8633071,0,0,6.0471535,-960.86157,-762.23166)"><g
           id="g22"
           transform="translate(368.1022,-9.8026)" /><g
           id="g26"
           transform="translate(304.5577,464.2652)" /><g
           id="g30"
           transform="translate(1155.3965,313.8602)" /><g
           id="g34"
           transform="translate(416.2398,592.4822)" /><g
           id="g38"
           transform="translate(353.9675,614.9936)" /><g
           id="g66"
           transform="translate(889.7415,418.042)" /><g
           id="g70"
           transform="translate(336.9884,434.7959)" /><g
           id="g74"
           transform="translate(364.249,416.4309)" /><g
           id="g78"
           transform="translate(330.1449,391.3722)" /><g
           id="g82"
           transform="translate(308.8367,433.3006)" /><g
           id="g86"
           transform="translate(310.509,433.5077)" /><g
           id="g90"
           transform="translate(317.1425,438.9114)" /><g
           id="g94"
           transform="translate(421.9034,187.888)"><path
             d="M 0,0 C -2.946,8.441 -12.183,12.902 -20.618,9.959 L -83.292,-10.95 c -1.645,-8.129 -6.426,-12.278 -10.567,-13.753 -27.834,-9.917 -52.942,6.166 -52.942,6.166 53.631,-18.766 55.344,3.874 55.344,3.874 1.41,8.381 -3.94,16.513 -12.328,18.45 -46.837,10.807 -104.56,0.595 -106.995,0.155 -7.687,-1.388 -13.287,-8.071 -13.311,-15.885 -0.023,-7.811 1.331,-24.856 20.34,-30.965 l 97.091,-7.336 c 0.232,-0.045 0.464,-0.082 0.696,-0.116 2.751,-0.39 5.531,-0.585 8.314,-0.585 6.232,0 12.478,0.975 18.399,2.896 0.114,0.034 0.224,0.074 0.338,0.111 l 68.952,27.317 C -1.515,-17.677 2.944,-8.446 0,0"
             style="fill:#1a1a1a;fill-opacity:1;fill-rule:nonzero;stroke:none"
             id="path96"
             inkscape:connector-curvature="0" /></g><g
           id="g98"
           transform="translate(287.1824,213.3704)"><path
             d="m 0,0 c 0,-1.194 -0.968,-2.162 -2.162,-2.162 -1.195,0 -2.163,0.968 -2.163,2.162 v 10.694 c 0,1.195 0.968,2.163 2.163,2.163 C -0.968,12.857 0,11.889 0,10.694 Z M 21.858,24.519 C 9.729,26.561 -6.706,20.982 -6.706,11.28 V -1.187 h 0.087 c 1.231,-8.992 16.834,-14.057 28.477,-12.097 7.091,1.194 12.711,4.993 12.711,12.097 v 13.609 c 0,7.104 -5.62,10.903 -12.711,12.097"
             style="fill:#1a1a1a;fill-opacity:1;fill-rule:nonzero;stroke:none"
             id="path100"
             inkscape:connector-curvature="0" /></g><g
           id="g102"
           transform="translate(254.4047,243.7866)"><path
             d="m 0,0 c -6.872,-6.872 -6.872,-18.052 -0.001,-24.923 6.871,-6.871 18.052,-6.871 24.924,0 6.871,6.872 6.871,18.053 0,24.924 C 18.052,6.872 6.872,6.872 0,0 m 26.067,-26.067 c -7.503,-7.502 -19.709,-7.502 -27.212,0 -7.502,7.502 -7.502,19.708 0.001,27.211 7.503,7.503 19.709,7.503 27.211,0.001 7.502,-7.503 7.502,-19.709 0,-27.212"
             style="fill:#1a1a1a;fill-opacity:1;fill-rule:nonzero;stroke:none"
             id="path104"
             inkscape:connector-curvature="0" /></g><g
           id="g106"
           transform="translate(365.5045,224.8244)"><path
             d="m 0,0 c -1.889,0 -2.118,-0.72 -4.465,-0.72 -2.348,0 -2.062,0.72 -4.81,0.72 -2.747,0 -3.263,-0.72 -5.953,-0.72 -2.691,0 -2.348,0.72 -5.21,0.72 h -13.053 c -2.462,0 -2.004,-0.72 -4.809,-0.72 -2.805,0 -2.061,0.72 -5.702,0.72 v -3.01 h -1.168 v -5.495 h 1.168 v -3.168 c 3.641,0 2.897,0.72 5.702,0.72 2.805,0 2.347,-0.72 4.809,-0.72 h 13.053 c 2.862,0 2.519,0.72 5.21,0.72 2.69,0 3.206,-0.72 5.953,-0.72 2.748,0 2.462,0.72 4.81,0.72 2.347,0 2.576,-0.72 4.465,-0.72 0.745,0 1.701,0.485 2.586,1.074 1.596,1.059 2.555,2.847 2.555,4.763 0,1.915 -0.959,3.703 -2.555,4.763 C 1.701,-0.485 0.745,0 0,0"
             style="fill:#1a1a1a;fill-opacity:1;fill-rule:nonzero;stroke:none"
             id="path108"
             inkscape:connector-curvature="0" /></g></g></g></g></svg>