<?xml version="1.0" encoding="UTF-8" standalone="no"?>
<!-- Created with Inkscape (http://www.inkscape.org/) -->

<svg
   xmlns:dc="http://purl.org/dc/elements/1.1/"
   xmlns:cc="http://creativecommons.org/ns#"
   xmlns:rdf="http://www.w3.org/1999/02/22-rdf-syntax-ns#"
   xmlns:svg="http://www.w3.org/2000/svg"
   xmlns="http://www.w3.org/2000/svg"
   xmlns:sodipodi="http://sodipodi.sourceforge.net/DTD/sodipodi-0.dtd"
   xmlns:inkscape="http://www.inkscape.org/namespaces/inkscape"
   version="1.1"
   id="svg2"
   xml:space="preserve"
   width="1461.3333"
   height="1040"
   viewBox="0 0 1461.3333 1040"
   sodipodi:docname="allvector.svg"
   inkscape:version="0.92.5 (2060ec1f9f, 2020-04-08)"><metadata
     id="metadata8"><rdf:RDF><cc:Work
         rdf:about=""><dc:format>image/svg+xml</dc:format><dc:type
           rdf:resource="http://purl.org/dc/dcmitype/StillImage" /><dc:title></dc:title></cc:Work></rdf:RDF></metadata><defs
     id="defs6"><clipPath
       clipPathUnits="userSpaceOnUse"
       id="clipPath20"><path
         d="M 0,780 H 1096 V 0 H 0 Z"
         id="path18"
         inkscape:connector-curvature="0" /></clipPath></defs><sodipodi:namedview
     pagecolor="#ffffff"
     bordercolor="#666666"
     borderopacity="1"
     objecttolerance="10"
     gridtolerance="10"
     guidetolerance="10"
     inkscape:pageopacity="0"
     inkscape:pageshadow="2"
     inkscape:window-width="1366"
     inkscape:window-height="708"
     id="namedview4"
     showgrid="false"
     inkscape:zoom="0.45384615"
     inkscape:cx="528.40617"
     inkscape:cy="495.47904"
     inkscape:window-x="0"
     inkscape:window-y="28"
     inkscape:window-maximized="1"
     inkscape:current-layer="g10" /><g
     id="g10"
     inkscape:groupmode="layer"
     inkscape:label="CarDealership1_FreeVector"
     transform="matrix(1.3333333,0,0,-1.3333333,0,1040)"><g
       id="g14"><g
         id="g16"
         clip-path="url(#clipPath20)"><g
           id="g22"
           transform="translate(368.1022,-9.8026)" /><g
           id="g26"
           transform="translate(304.5577,464.2652)"><path
             d="M 0,0 9.73,-9.73 5.754,-23.957 3.785,-19.923 Z"
             style="fill:#8c2f32;fill-opacity:1;fill-rule:nonzero;stroke:none"
             id="path28"
             inkscape:connector-curvature="0" /></g><g
           id="g30"
           transform="translate(1155.3965,313.8602)" /><g
           id="g34"
           transform="translate(416.2398,592.4822)"><path
             d="M 0,0 C -2.946,8.441 -12.183,12.902 -20.618,9.959 L -83.292,-10.95 c -1.645,-8.129 -6.426,-12.278 -10.567,-13.753 -27.834,-9.917 -52.942,6.167 -52.942,6.167 53.631,-18.767 55.344,3.873 55.344,3.873 1.41,8.381 -3.94,16.513 -12.328,18.45 -46.837,10.807 -104.56,0.595 -106.995,0.155 -7.687,-1.388 -13.287,-8.071 -13.311,-15.885 -0.023,-7.811 1.331,-24.856 20.34,-30.965 l 97.091,-7.336 c 0.232,-0.045 0.464,-0.082 0.695,-0.116 2.752,-0.39 5.532,-0.585 8.315,-0.585 6.232,0 12.478,0.975 18.399,2.896 0.114,0.034 0.224,0.074 0.338,0.111 l 68.952,27.317 C -1.515,-17.677 2.944,-8.446 0,0"
             style="fill:#1a1a1a;fill-opacity:1;fill-rule:nonzero;stroke:none"
             id="path36"
             inkscape:connector-curvature="0" /></g><g
           id="g38"
           transform="translate(353.9675,614.9936)"><path
             d="m 0,0 c -0.212,-0.193 -0.434,-0.37 -0.661,-0.546 -0.258,-0.198 -0.515,-0.391 -0.79,-0.564 -0.286,-0.181 -0.587,-0.332 -0.891,-0.484 -0.256,-0.128 -0.504,-0.264 -0.771,-0.37 -0.379,-0.152 -0.776,-0.259 -1.175,-0.366 -0.223,-0.059 -0.436,-0.14 -0.665,-0.184 -0.642,-0.126 -1.301,-0.2 -1.98,-0.2 -0.679,0 -1.338,0.074 -1.98,0.2 -0.229,0.044 -0.442,0.125 -0.665,0.184 -0.399,0.107 -0.796,0.214 -1.175,0.366 -0.267,0.106 -0.515,0.242 -0.771,0.37 -0.303,0.152 -0.605,0.303 -0.89,0.484 -0.276,0.173 -0.532,0.366 -0.79,0.564 -0.228,0.176 -0.45,0.353 -0.662,0.546 -0.268,0.244 -0.518,0.499 -0.76,0.769 -0.16,0.179 -0.31,0.364 -0.457,0.554 -0.246,0.315 -0.476,0.638 -0.685,0.981 -0.099,0.165 -0.185,0.336 -0.275,0.506 -0.209,0.392 -0.405,0.787 -0.563,1.206 -0.047,0.126 -0.077,0.257 -0.119,0.384 -0.343,1.028 -0.573,2.107 -0.573,3.248 0,5.714 4.651,10.365 10.365,10.365 5.715,0 10.365,-4.651 10.365,-10.365 C 3.432,6.507 3.202,5.428 2.86,4.4 2.817,4.273 2.788,4.142 2.741,4.016 2.582,3.597 2.386,3.202 2.177,2.81 2.087,2.64 2.001,2.469 1.902,2.304 1.693,1.961 1.463,1.638 1.217,1.323 1.07,1.133 0.92,0.948 0.76,0.769 0.518,0.499 0.268,0.244 0,0 M -42.466,36.618 V 56.99 h 5.947 c 3.41,0 6.639,-1.533 8.796,-4.174 l 13.225,-16.198 z m -3.854,0 h -40.246 l 8.896,16.821 c 1.155,2.184 3.424,3.551 5.895,3.551 H -46.32 Z M -73.109,0 c -0.211,-0.193 -0.434,-0.37 -0.661,-0.546 -0.258,-0.198 -0.514,-0.391 -0.79,-0.564 -0.286,-0.181 -0.587,-0.332 -0.891,-0.484 -0.255,-0.128 -0.504,-0.264 -0.771,-0.37 -0.378,-0.152 -0.776,-0.259 -1.174,-0.366 -0.224,-0.059 -0.437,-0.14 -0.666,-0.184 -0.642,-0.126 -1.301,-0.2 -1.98,-0.2 -0.678,0 -1.338,0.074 -1.98,0.2 -0.228,0.044 -0.441,0.125 -0.665,0.184 -0.399,0.107 -0.796,0.214 -1.174,0.366 -0.267,0.106 -0.515,0.242 -0.771,0.37 -0.304,0.152 -0.605,0.303 -0.891,0.484 -0.275,0.173 -0.531,0.366 -0.789,0.564 -0.227,0.176 -0.45,0.353 -0.662,0.546 -0.268,0.244 -0.518,0.499 -0.759,0.769 -0.16,0.179 -0.31,0.364 -0.458,0.554 -0.245,0.316 -0.475,0.637 -0.683,0.98 -0.1,0.166 -0.186,0.338 -0.277,0.51 -0.208,0.39 -0.403,0.784 -0.561,1.202 -0.048,0.127 -0.079,0.261 -0.122,0.39 -0.158,0.476 -0.302,0.956 -0.39,1.46 v 0 c -0.102,0.582 -0.18,1.173 -0.18,1.783 0,5.714 4.648,10.365 10.362,10.365 5.715,0 10.365,-4.651 10.365,-10.365 0,-1.141 -0.229,-2.22 -0.572,-3.248 -0.042,-0.127 -0.072,-0.258 -0.119,-0.384 -0.159,-0.419 -0.355,-0.814 -0.564,-1.206 -0.09,-0.17 -0.176,-0.341 -0.275,-0.506 -0.209,-0.343 -0.439,-0.666 -0.685,-0.981 -0.147,-0.19 -0.297,-0.375 -0.456,-0.554 C -72.591,0.499 -72.841,0.244 -73.109,0 M 20.147,37.391 -4.992,36.618 -25.721,61.276 c -1.717,2.121 -4.3,3.353 -7.029,3.353 h -41.513 c -3.273,0 -6.289,-1.767 -7.889,-4.621 l -13.113,-23.39 h -9.008 c -2.81,0 -4.977,-2.474 -4.607,-5.259 l 4.25,-23.358 c 0.206,-1.128 1.174,-1.956 2.32,-1.983 l 6.338,-0.153 c 0.891,-8.004 7.692,-14.252 15.93,-14.252 8.242,0 15.043,6.248 15.933,14.252 h 41.243 c 0.891,-8.004 7.692,-14.252 15.933,-14.252 8.241,0 15.042,6.248 15.933,14.252 l 8.254,0.161 c 1.152,0.023 2.127,0.854 2.331,1.987 l 4.363,24.188 c 0.328,2.469 -1.349,4.758 -3.801,5.19"
             style="fill:#1a1a1a;fill-opacity:1;fill-rule:nonzero;stroke:none"
             id="path40"
             inkscape:connector-curvature="0" /></g><g
           id="g42"
           transform="translate(843.7579,567.9616)"><path
             d="m 0,0 c -0.212,-0.193 -0.434,-0.37 -0.661,-0.546 -0.258,-0.198 -0.514,-0.391 -0.79,-0.564 -0.286,-0.181 -0.587,-0.332 -0.891,-0.484 -0.256,-0.128 -0.504,-0.264 -0.771,-0.37 -0.379,-0.152 -0.776,-0.259 -1.175,-0.366 -0.223,-0.059 -0.436,-0.14 -0.665,-0.184 -0.642,-0.126 -1.301,-0.2 -1.98,-0.2 -0.679,0 -1.338,0.074 -1.98,0.2 -0.229,0.044 -0.441,0.125 -0.665,0.184 -0.399,0.107 -0.796,0.214 -1.175,0.366 -0.267,0.106 -0.515,0.242 -0.771,0.37 -0.303,0.152 -0.605,0.303 -0.89,0.484 -0.276,0.173 -0.532,0.366 -0.79,0.564 -0.228,0.176 -0.45,0.353 -0.662,0.546 -0.268,0.244 -0.518,0.499 -0.76,0.769 -0.16,0.18 -0.31,0.364 -0.457,0.554 -0.246,0.315 -0.476,0.638 -0.685,0.981 -0.099,0.165 -0.185,0.336 -0.275,0.506 -0.209,0.392 -0.405,0.787 -0.563,1.206 -0.047,0.126 -0.077,0.257 -0.119,0.384 -0.343,1.028 -0.573,2.107 -0.573,3.248 0,5.714 4.651,10.365 10.365,10.365 5.715,0 10.365,-4.651 10.365,-10.365 C 3.432,6.507 3.202,5.428 2.86,4.4 2.817,4.273 2.788,4.142 2.741,4.016 2.582,3.597 2.386,3.202 2.177,2.81 2.087,2.64 2.001,2.469 1.902,2.304 1.693,1.961 1.463,1.638 1.217,1.323 1.07,1.133 0.92,0.949 0.76,0.769 0.518,0.499 0.268,0.244 0,0 M -42.466,36.618 V 56.99 h 5.947 c 3.41,0 6.639,-1.533 8.796,-4.174 l 13.225,-16.198 z m -3.854,0 h -40.246 l 8.896,16.821 c 1.155,2.184 3.424,3.551 5.895,3.551 H -46.32 Z M -73.109,0 c -0.211,-0.193 -0.434,-0.37 -0.661,-0.546 -0.258,-0.198 -0.514,-0.391 -0.79,-0.564 -0.286,-0.181 -0.587,-0.332 -0.891,-0.484 -0.255,-0.128 -0.504,-0.264 -0.771,-0.37 -0.378,-0.152 -0.775,-0.259 -1.174,-0.366 -0.224,-0.059 -0.437,-0.14 -0.666,-0.184 -0.642,-0.126 -1.301,-0.2 -1.98,-0.2 -0.678,0 -1.338,0.074 -1.98,0.2 -0.228,0.044 -0.441,0.125 -0.665,0.184 -0.399,0.107 -0.796,0.214 -1.174,0.366 -0.267,0.106 -0.515,0.242 -0.771,0.37 -0.304,0.152 -0.605,0.303 -0.891,0.484 -0.275,0.173 -0.531,0.366 -0.789,0.564 -0.227,0.176 -0.45,0.353 -0.662,0.546 -0.268,0.244 -0.518,0.499 -0.759,0.769 -0.16,0.179 -0.31,0.364 -0.458,0.554 -0.245,0.316 -0.475,0.637 -0.683,0.98 -0.1,0.166 -0.186,0.338 -0.277,0.51 -0.208,0.39 -0.403,0.784 -0.561,1.202 -0.048,0.127 -0.079,0.261 -0.121,0.39 -0.159,0.476 -0.303,0.956 -0.391,1.46 v 0 c -0.102,0.582 -0.18,1.173 -0.18,1.783 0,5.714 4.648,10.365 10.362,10.365 5.715,0 10.365,-4.651 10.365,-10.365 0,-1.141 -0.229,-2.22 -0.572,-3.248 -0.042,-0.127 -0.072,-0.258 -0.119,-0.384 -0.159,-0.419 -0.355,-0.814 -0.564,-1.206 -0.09,-0.17 -0.176,-0.341 -0.275,-0.506 -0.209,-0.343 -0.439,-0.666 -0.685,-0.981 -0.147,-0.19 -0.297,-0.374 -0.456,-0.554 C -72.591,0.499 -72.84,0.244 -73.109,0 M 20.147,37.391 -4.992,36.618 -25.721,61.276 c -1.717,2.121 -4.3,3.353 -7.029,3.353 h -41.513 c -3.272,0 -6.289,-1.767 -7.889,-4.621 l -13.113,-23.39 h -9.008 c -2.81,0 -4.977,-2.474 -4.607,-5.259 l 4.25,-23.358 c 0.206,-1.128 1.174,-1.956 2.32,-1.983 l 6.338,-0.153 c 0.891,-8.004 7.692,-14.252 15.93,-14.252 8.242,0 15.043,6.248 15.933,14.252 h 41.243 c 0.891,-8.004 7.692,-14.252 15.933,-14.252 8.241,0 15.042,6.248 15.933,14.252 l 8.254,0.161 c 1.152,0.023 2.127,0.854 2.331,1.987 l 4.363,24.188 c 0.328,2.469 -1.349,4.758 -3.801,5.19"
             style="fill:#1a1a1a;fill-opacity:1;fill-rule:nonzero;stroke:none"
             id="path44"
             inkscape:connector-curvature="0" /></g><g
           id="g46"
           transform="translate(774.7184,656.1884)"><path
             d="m 0,0 c -2.875,0 -5.04,-2.34 -6.348,-4.303 -1.533,-2.298 -1.904,-4.387 -1.137,-6.386 2.159,-5.626 12.329,-9.904 18.331,-11.816 1.445,7.608 -0.853,14.193 -3.72,18.038 C 5.008,-1.627 2.411,0 0,0 m 14.646,-29.134 -2.513,0.639 c -2.104,0.535 -20.68,5.527 -24.654,15.867 -0.978,2.544 -1.48,6.573 1.682,11.318 3.695,5.544 7.934,6.707 10.839,6.707 4.132,0 8.306,-2.419 11.452,-6.638 3.972,-5.326 7.091,-14.799 3.933,-25.408 z"
             style="fill:#1a1a1a;fill-opacity:1;fill-rule:nonzero;stroke:none"
             id="path48"
             inkscape:connector-curvature="0" /></g><g
           id="g50"
           transform="translate(803.7539,655.5005)"><path
             d="m 0,0 c -2.442,0 -5.118,-1.619 -7.339,-4.444 -2.896,-3.681 -5.376,-10.037 -4.369,-17.479 6.092,1.6 16.467,5.346 18.914,10.854 0.87,1.956 0.606,4.062 -0.805,6.436 C 5.145,-2.519 3.015,0 0,0 m -15.849,-28.346 -0.608,2.519 c -2.116,8.736 -0.248,18.207 4.875,24.719 3.253,4.135 7.474,6.505 11.582,6.505 4.332,0 8.254,-2.582 11.042,-7.273 2.913,-4.902 2.203,-8.9 1.095,-11.391 -4.504,-10.121 -23.313,-14.145 -25.444,-14.571 z"
             style="fill:#1a1a1a;fill-opacity:1;fill-rule:nonzero;stroke:none"
             id="path52"
             inkscape:connector-curvature="0" /></g><g
           id="g54"
           transform="translate(818.0292,487.1814)"><path
             d="M 0,0 C 0,0 -6.754,1.757 -26.677,1.757 -46.6,1.757 -53.354,0 -53.354,0 l -7.84,-17.516 H 7.84 Z"
             style="fill:#1a1a1a;fill-opacity:1;fill-rule:nonzero;stroke:none"
             id="path56"
             inkscape:connector-curvature="0" /></g><g
           id="g58"
           transform="translate(845.2899,468.8163)"><path
             d="m 0,0 c 0,1.961 -1.743,3.55 -3.893,3.55 h -13.975 l 5.044,-7.1 h 8.931 C -1.743,-3.55 0,-1.961 0,0"
             style="fill:#1a1a1a;fill-opacity:1;fill-rule:nonzero;stroke:none"
             id="path60"
             inkscape:connector-curvature="0" /></g><g
           id="g62"
           transform="translate(811.1858,443.7577)"><path
             d="m 0,0 -3.613,-10.653 c -0.273,-0.804 -1.028,-1.345 -1.877,-1.345 h -28.687 c -0.85,0 -1.605,0.541 -1.878,1.346 L -39.667,0 c -0.436,1.286 0.52,2.619 1.877,2.619 H -1.877 C -0.52,2.619 0.436,1.285 0,0 m -60.948,21.508 5.045,7.101 h -13.976 c -2.149,0 -3.892,-1.59 -3.892,-3.55 0,-1.961 1.743,-3.551 3.892,-3.551 h 8.931 L -72.278,8.016 h 16.459 c 1.398,0 2.653,-0.861 3.155,-2.167 l 4.271,-8.4 h -23.885 v -16.193 h 0.001 l 2.552,-10.79 h 9.349 v 10.79 h 81.084 v -10.79 h 9.35 l 2.552,10.79 V -2.551 H 8.726 l 4.271,8.4 c 0.502,1.306 1.756,2.167 3.155,2.167 H 32.61 L 21.28,21.508 h -41.113 z"
             style="fill:#1a1a1a;fill-opacity:1;fill-rule:nonzero;stroke:none"
             id="path64"
             inkscape:connector-curvature="0" /></g><g
           id="g66"
           transform="translate(889.7415,418.042)"><path
             d="m 0,0 14.109,-31.033 -98.438,-45.875 -133.305,18.215 h -13.09 v 42.502 l 75.559,9.674 74.212,-7.65 -6.71,-29.78 -52.681,8.028 58.499,-12.768 5.009,20.354 z"
             style="fill:#1a1a1a;fill-opacity:1;fill-rule:nonzero;stroke:none"
             id="path68"
             inkscape:connector-curvature="0" /></g><g
           id="g70"
           transform="translate(336.9884,434.7959)"><path
             d="M 0,0 C 0,0 -6.754,1.757 -26.677,1.757 -46.6,1.757 -53.354,0 -53.354,0 l -7.84,-17.516 H 7.84 Z"
             style="fill:#1a1a1a;fill-opacity:1;fill-rule:nonzero;stroke:none"
             id="path72"
             inkscape:connector-curvature="0" /></g><g
           id="g74"
           transform="translate(364.249,416.4309)"><path
             d="m 0,0 c 0,1.961 -1.743,3.55 -3.893,3.55 h -13.975 l 5.044,-7.1 h 8.931 C -1.743,-3.55 0,-1.961 0,0"
             style="fill:#1a1a1a;fill-opacity:1;fill-rule:nonzero;stroke:none"
             id="path76"
             inkscape:connector-curvature="0" /></g><g
           id="g78"
           transform="translate(330.1449,391.3722)"><path
             d="m 0,0 -3.613,-10.653 c -0.273,-0.804 -1.028,-1.345 -1.877,-1.345 h -28.687 c -0.85,0 -1.605,0.541 -1.878,1.346 L -39.667,0 c -0.436,1.286 0.52,2.619 1.877,2.619 H -1.877 C -0.52,2.619 0.436,1.285 0,0 m -60.948,21.508 5.045,7.101 h -13.976 c -2.149,0 -3.892,-1.59 -3.892,-3.55 0,-1.961 1.743,-3.551 3.892,-3.551 h 8.931 L -72.278,8.016 h 16.459 c 1.398,0 2.653,-0.861 3.155,-2.167 l 4.271,-8.4 h -23.885 v -16.193 h 0.001 l 2.552,-10.79 h 9.349 v 10.79 h 81.084 v -10.79 h 9.35 l 2.552,10.79 V -2.551 H 8.726 l 4.271,8.4 c 0.502,1.306 1.756,2.167 3.155,2.167 H 32.61 L 21.28,21.508 h -41.113 z"
             style="fill:#1a1a1a;fill-opacity:1;fill-rule:nonzero;stroke:none"
             id="path80"
             inkscape:connector-curvature="0" /></g><g
           id="g82"
           transform="translate(308.8367,433.3006)"><path
             d="m 0,0 c -0.6,1.717 -1.952,5.586 -3.744,10.715 -1.188,3.521 -2.575,7.63 -4.06,12.032 -0.543,2.127 -2.259,3.722 -4.428,4.014 -1.051,0.126 -2.168,-0.039 -3.093,-0.548 -0.887,-0.47 -1.808,-1.429 -2.746,-2.216 -0.917,-0.8 -1.935,-1.628 -2.769,-2.396 -0.788,-0.736 -1.29,-1.73 -1.493,-2.773 -0.384,-2.125 0.596,-4.321 2.438,-5.42 3.838,-2.615 7.419,-5.055 10.489,-7.147 C -6.329,4.185 -3.765,2.455 -1.971,1.244 -1.149,0.707 -0.469,0.28 0,0 m 0.572,-1.229 c -0.01,0.02 -0.311,-0.056 -1.009,0.064 -0.677,0.123 -1.597,0.215 -2.727,0.505 -2.269,0.516 -5.436,1.38 -8.994,2.773 -1.799,0.668 -3.731,1.416 -5.672,2.361 -1.967,0.905 -4.058,1.835 -6.112,2.958 l -0.195,0.102 -0.049,0.025 -0.025,0.013 c -0.148,0.106 0.299,-0.219 -0.339,0.24 l -0.095,0.057 -0.378,0.226 c -0.052,0.012 -0.394,0.27 -0.703,0.538 -0.299,0.257 -0.594,0.529 -0.871,0.805 -0.863,0.917 -1.657,1.948 -2.225,3.11 -1.209,2.294 -1.63,4.993 -1.234,7.627 0.404,2.622 1.642,5.253 3.596,7.136 l 0.667,0.637 0.345,0.309 0.691,0.619 1.386,1.237 1.424,1.193 0.716,0.589 0.373,0.275 c 0.035,0.047 1.04,0.729 1.75,1.099 2.585,1.37 5.355,1.636 7.986,1.241 2.619,-0.417 5.029,-1.706 6.843,-3.545 0.889,-0.936 1.668,-1.971 2.222,-3.092 0.57,-1.006 1.008,-2.585 1.05,-2.884 0.572,-2.258 0.87,-4.524 1.219,-6.651 C 0.6,16.224 0.791,14.167 0.967,12.268 1.362,8.485 1.387,5.232 1.338,2.933 l -0.28,-4.075 z"
             style="fill:#1a1a1a;fill-opacity:1;fill-rule:nonzero;stroke:none"
             id="path84"
             inkscape:connector-curvature="0" /></g><g
           id="g86"
           transform="translate(310.509,433.5077)"><path
             d="m 0,0 c 1.707,1.06 5.205,3.231 9.769,6.064 3.296,1.999 7.143,4.332 11.263,6.832 1.088,0.639 1.98,1.165 2.593,2.099 0.635,0.88 0.956,1.993 0.937,3.095 -0.002,1.094 -0.437,2.23 -1.063,3.044 -0.76,0.888 -1.781,1.802 -2.661,2.704 l -1.352,1.373 c -0.421,0.408 -0.834,0.76 -1.335,1.013 -0.973,0.538 -2.123,0.713 -3.217,0.55 -1.093,-0.166 -2.122,-0.687 -2.889,-1.449 -0.76,-0.721 -1.198,-1.813 -1.704,-2.926 C 8.342,18.014 6.476,13.921 4.877,10.412 2.599,5.548 0.852,1.819 0,0 m -1.314,-0.897 c 0,0 -0.023,1.418 0.195,3.785 0.216,2.367 0.614,5.71 1.452,9.559 0.39,1.938 0.83,4.029 1.462,6.166 0.587,2.158 1.176,4.446 1.958,6.736 l 0.279,0.87 0.143,0.436 0.038,0.108 0.01,0.027 0.193,0.404 0.023,0.053 0.09,0.211 0.182,0.424 c 0.173,0.324 0.403,0.711 0.624,1.054 0.489,0.773 0.871,1.186 1.324,1.716 1.815,1.997 4.332,3.388 7.035,3.862 2.69,0.489 5.65,0.156 8.191,-1.202 1.242,-0.605 2.497,-1.619 3.309,-2.417 l 1.378,-1.347 1.339,-1.387 0.668,-0.692 0.456,-0.485 0.157,-0.183 0.365,-0.433 c 1.229,-1.553 1.743,-2.689 2.208,-4.06 0.415,-1.347 0.654,-2.741 0.624,-4.12 C 32.384,15.434 31.433,12.739 29.763,10.639 28.956,9.572 27.954,8.679 26.9,7.947 25.582,7.092 25.296,7.058 24.704,6.751 22.551,5.656 20.333,4.828 18.264,3.982 16.218,3.101 14.187,2.427 12.313,1.806 8.588,0.523 5.319,-0.271 2.995,-0.766 l -4.3,-0.704 z"
             style="fill:#1a1a1a;fill-opacity:1;fill-rule:nonzero;stroke:none"
             id="path88"
             inkscape:connector-curvature="0" /></g><g
           id="g90"
           transform="translate(317.1425,438.9114)"><path
             d="m 0,0 c 0,-3.509 -2.845,-6.354 -6.354,-6.354 -3.509,0 -6.353,2.845 -6.353,6.354 0,3.509 2.844,6.354 6.353,6.354 C -2.845,6.354 0,3.509 0,0"
             style="fill:#1a1a1a;fill-opacity:1;fill-rule:nonzero;stroke:none"
             id="path92"
             inkscape:connector-curvature="0" /></g><g
           id="g94"
           transform="translate(421.9034,187.888)"><path
             d="M 0,0 C -2.946,8.441 -12.183,12.902 -20.618,9.959 L -83.292,-10.95 c -1.645,-8.129 -6.426,-12.278 -10.567,-13.753 -27.834,-9.917 -52.942,6.166 -52.942,6.166 53.631,-18.766 55.344,3.874 55.344,3.874 1.41,8.381 -3.94,16.513 -12.328,18.45 -46.837,10.807 -104.56,0.595 -106.995,0.155 -7.687,-1.388 -13.287,-8.071 -13.311,-15.885 -0.023,-7.811 1.331,-24.856 20.34,-30.965 l 97.091,-7.336 c 0.232,-0.045 0.464,-0.082 0.696,-0.116 2.751,-0.39 5.531,-0.585 8.314,-0.585 6.232,0 12.478,0.975 18.399,2.896 0.114,0.034 0.224,0.074 0.338,0.111 l 68.952,27.317 C -1.515,-17.677 2.944,-8.446 0,0"
             style="fill:#1a1a1a;fill-opacity:1;fill-rule:nonzero;stroke:none"
             id="path96"
             inkscape:connector-curvature="0" /></g><g
           id="g98"
           transform="translate(287.1824,213.3704)"><path
             d="m 0,0 c 0,-1.194 -0.968,-2.162 -2.162,-2.162 -1.195,0 -2.163,0.968 -2.163,2.162 v 10.694 c 0,1.195 0.968,2.163 2.163,2.163 C -0.968,12.857 0,11.889 0,10.694 Z M 21.858,24.519 C 9.729,26.561 -6.706,20.982 -6.706,11.28 V -1.187 h 0.087 c 1.231,-8.992 16.834,-14.057 28.477,-12.097 7.091,1.194 12.711,4.993 12.711,12.097 v 13.609 c 0,7.104 -5.62,10.903 -12.711,12.097"
             style="fill:#1a1a1a;fill-opacity:1;fill-rule:nonzero;stroke:none"
             id="path100"
             inkscape:connector-curvature="0" /></g><g
           id="g102"
           transform="translate(254.4047,243.7866)"><path
             d="m 0,0 c -6.872,-6.872 -6.872,-18.052 -0.001,-24.923 6.871,-6.871 18.052,-6.871 24.924,0 6.871,6.872 6.871,18.053 0,24.924 C 18.052,6.872 6.872,6.872 0,0 m 26.067,-26.067 c -7.503,-7.502 -19.709,-7.502 -27.212,0 -7.502,7.502 -7.502,19.708 0.001,27.211 7.503,7.503 19.709,7.503 27.211,0.001 7.502,-7.503 7.502,-19.709 0,-27.212"
             style="fill:#1a1a1a;fill-opacity:1;fill-rule:nonzero;stroke:none"
             id="path104"
             inkscape:connector-curvature="0" /></g><g
           id="g106"
           transform="translate(365.5045,224.8244)"><path
             d="m 0,0 c -1.889,0 -2.118,-0.72 -4.465,-0.72 -2.348,0 -2.062,0.72 -4.81,0.72 -2.747,0 -3.263,-0.72 -5.953,-0.72 -2.691,0 -2.348,0.72 -5.21,0.72 h -13.053 c -2.462,0 -2.004,-0.72 -4.809,-0.72 -2.805,0 -2.061,0.72 -5.702,0.72 v -3.01 h -1.168 v -5.495 h 1.168 v -3.168 c 3.641,0 2.897,0.72 5.702,0.72 2.805,0 2.347,-0.72 4.809,-0.72 h 13.053 c 2.862,0 2.519,0.72 5.21,0.72 2.69,0 3.206,-0.72 5.953,-0.72 2.748,0 2.462,0.72 4.81,0.72 2.347,0 2.576,-0.72 4.465,-0.72 0.745,0 1.701,0.485 2.586,1.074 1.596,1.059 2.555,2.847 2.555,4.763 0,1.915 -0.959,3.703 -2.555,4.763 C 1.701,-0.485 0.745,0 0,0"
             style="fill:#1a1a1a;fill-opacity:1;fill-rule:nonzero;stroke:none"
             id="path108"
             inkscape:connector-curvature="0" /></g><g
           id="g110"
           transform="translate(848.0591,126.7442)"><path
             d="M 0,0 V -27.779 L 27.779,0 Z"
             style="fill:#1a1a1a;fill-opacity:1;fill-rule:nonzero;stroke:none"
             id="path112"
             inkscape:connector-curvature="0" /></g><g
           id="g114"
           transform="translate(792.9907,242.4695)"><path
             d="m 0,0 c 0.14,-0.412 0.526,-0.689 0.961,-0.689 h 14.68 c 0.435,0 0.821,0.277 0.961,0.689 l 1.849,5.451 c 0.223,0.658 -0.266,1.34 -0.961,1.34 H -0.888 c -0.694,0 -1.183,-0.682 -0.961,-1.34 z"
             style="fill:#1a1a1a;fill-opacity:1;fill-rule:nonzero;stroke:none"
             id="path116"
             inkscape:connector-curvature="0" /></g><path
           d="M 861.948,218.374 H 740.657 v 2.699 h 121.291 z m 0,-24.624 H 740.657 v 2.699 h 121.291 z m 0,-24.624 H 740.657 v 2.699 h 121.291 z m 0,-24.624 H 740.657 v 2.699 h 121.291 z m -86.266,118.059 h 7.152 l -2.582,-3.634 h 21.04 21.039 l -2.581,3.634 h 7.152 c 1.1,0 1.992,-0.814 1.992,-1.817 0,-1.003 -0.892,-1.817 -1.992,-1.817 h -4.571 l 5.798,-6.904 h -8.422 c -0.716,0 -1.358,-0.441 -1.615,-1.109 l -2.185,-4.299 h 12.222 v -8.287 l -1.306,-5.521 h -4.784 v 5.521 h -41.494 v -5.521 h -4.784 l -1.307,5.521 v 8.287 h 12.223 l -2.186,4.299 c -0.257,0.668 -0.899,1.109 -1.614,1.109 h -8.423 l 5.798,6.904 h -4.57 c -1.1,0 -1.992,0.814 -1.992,1.817 0,1.003 0.892,1.817 1.992,1.817 m 11.958,7.581 c 0,0 3.457,0.9 13.652,0.9 10.195,0 13.652,-0.9 13.652,-0.9 l 4.012,-8.963 h -35.328 z m 88.199,18.394 H 726.745 V 98.965 h 118.618 l -1.703,20.913 H 740.657 v 2.699 H 843.44 l -0.778,9.564 33.177,-2.7 z"
           style="fill:#1a1a1a;fill-opacity:1;fill-rule:nonzero;stroke:none"
           id="path118"
           inkscape:connector-curvature="0" /></g></g></g></svg>