<?xml version="1.0" encoding="iso-8859-1"?>
<!-- Generator: Adobe Illustrator 19.0.0, SVG Export Plug-In . SVG Version: 6.00 Build 0)  -->
<svg version="1.1" id="Capa_1" xmlns="http://www.w3.org/2000/svg" xmlns:xlink="http://www.w3.org/1999/xlink" x="0px" y="0px"
	 viewBox="0 0 512 512" style="enable-background:new 0 0 512 512;" xml:space="preserve">
<g>
	<g>
		<path d="M357.449,447.64c-0.131-0.64-0.32-1.27-0.57-1.87c-0.25-0.61-0.561-1.19-0.92-1.73c-0.36-0.55-0.78-1.06-1.24-1.52
			c-0.47-0.46-0.98-0.88-1.52-1.24c-0.55-0.36-1.13-0.67-1.73-0.92c-0.6-0.25-1.229-0.44-1.87-0.57c-1.29-0.26-2.62-0.26-3.91,0
			c-0.64,0.13-1.269,0.32-1.87,0.57c-0.599,0.25-1.179,0.56-1.729,0.92c-0.541,0.36-1.05,0.78-1.521,1.24
			c-0.46,0.46-0.88,0.97-1.239,1.52c-0.36,0.54-0.67,1.12-0.92,1.73c-0.25,0.6-0.44,1.23-0.57,1.87s-0.2,1.3-0.2,1.95
			c0,0.65,0.07,1.31,0.2,1.96c0.13,0.63,0.32,1.26,0.57,1.87c0.25,0.6,0.56,1.18,0.92,1.72c0.359,0.55,0.779,1.06,1.239,1.52
			c0.471,0.46,0.981,0.88,1.521,1.24c0.549,0.36,1.129,0.67,1.729,0.92c0.6,0.25,1.23,0.45,1.87,0.58
			c0.65,0.12,1.301,0.19,1.96,0.19c0.651,0,1.301-0.07,1.95-0.19c0.641-0.13,1.271-0.33,1.87-0.58s1.179-0.56,1.73-0.92
			c0.541-0.36,1.05-0.78,1.52-1.24c0.46-0.46,0.88-0.97,1.24-1.52c0.359-0.54,0.67-1.12,0.92-1.72c0.25-0.61,0.439-1.24,0.57-1.87
			c0.13-0.65,0.189-1.31,0.189-1.96S357.579,448.28,357.449,447.64z"/>
	</g>
</g>
<g>
	<g>
		<path d="M392.361,439.643v-10.351c0-22.514-17.759-40.957-40.004-42.058v-10.351c0-23.22-18.891-42.111-42.11-42.111h-18.913
			V182.009h0.001c5.522,0,10-4.477,10-10v-34.918c16.198-8.487,26.663-25.4,26.663-44.079V49.748C327.998,22.317,305.682,0,278.25,0
			h-44.5c-27.432,0-49.748,22.317-49.748,49.748v43.264c0,18.679,10.465,35.592,26.663,44.079v34.918c0,5.523,4.478,10,10,10h0.001
			v152.763h-18.913c-23.22,0-42.11,18.891-42.11,42.111v10.351c-22.245,1.101-40.004,19.545-40.004,42.058v10.351
			c-22.246,1.1-40.004,19.544-40.004,42.059V502c0,5.523,4.477,10,10,10h332.73c5.522,0,10-4.477,10-10v-20.298
			C432.365,459.188,414.607,440.743,392.361,439.643z M204.002,93.012V49.748C204.002,33.345,217.347,20,233.75,20h44.5
			c16.403,0,29.748,13.345,29.748,29.748v43.264c0,12.648-8.018,23.94-19.954,28.1c-4.018,1.4-6.709,5.188-6.709,9.443v31.454
			h-50.67v-21.454h22.834c5.523,0,10-4.477,10-10s-4.477-10-10-10h-30.834c-0.059,0-0.117,0.001-0.175,0.002
			C211.369,116.012,204.002,105.135,204.002,93.012z M240.666,293V182.009h30.668V293H240.666z M271.334,313v21.772h-30.668V313
			H271.334z M179.643,376.883c0-12.192,9.918-22.111,22.11-22.111h108.494c12.191,0,22.11,9.919,22.11,22.111v10.298H179.643
			V376.883z M412.365,492L412.365,492H99.635v-10.298c0-12.192,9.919-22.111,22.11-22.111h189.899c5.522,0,10-4.477,10-10
			s-4.478-10-10-10H139.639v-10.299c0-12.192,9.919-22.111,22.11-22.111h188.502c12.191,0,22.11,9.919,22.11,22.111v20.299
			c0,5.523,4.478,10,10,10h7.894c12.191,0,22.11,9.919,22.11,22.111V492z"/>
	</g>
</g>
<g>
</g>
<g>
</g>
<g>
</g>
<g>
</g>
<g>
</g>
<g>
</g>
<g>
</g>
<g>
</g>
<g>
</g>
<g>
</g>
<g>
</g>
<g>
</g>
<g>
</g>
<g>
</g>
<g>
</g>
</svg>
