<?xml version="1.0" encoding="UTF-8" standalone="no"?>
<!-- Created with Inkscape (http://www.inkscape.org/) -->

<svg
   xmlns:dc="http://purl.org/dc/elements/1.1/"
   xmlns:cc="http://creativecommons.org/ns#"
   xmlns:rdf="http://www.w3.org/1999/02/22-rdf-syntax-ns#"
   xmlns:svg="http://www.w3.org/2000/svg"
   xmlns="http://www.w3.org/2000/svg"
   xmlns:sodipodi="http://sodipodi.sourceforge.net/DTD/sodipodi-0.dtd"
   xmlns:inkscape="http://www.inkscape.org/namespaces/inkscape"
   version="1.1"
   id="svg2"
   xml:space="preserve"
   width="1461.3333"
   height="1040"
   viewBox="0 0 1461.3333 1040"
   sodipodi:docname="vectorpaperasse.svg"
   inkscape:version="0.92.5 (2060ec1f9f, 2020-04-08)"><metadata
     id="metadata8"><rdf:RDF><cc:Work
         rdf:about=""><dc:format>image/svg+xml</dc:format><dc:type
           rdf:resource="http://purl.org/dc/dcmitype/StillImage" /><dc:title /></cc:Work></rdf:RDF></metadata><defs
     id="defs6"><clipPath
       clipPathUnits="userSpaceOnUse"
       id="clipPath20"><path
         d="M 0,780 H 1096 V 0 H 0 Z"
         id="path18"
         inkscape:connector-curvature="0" /></clipPath></defs><sodipodi:namedview
     pagecolor="#ffffff"
     bordercolor="#666666"
     borderopacity="1"
     objecttolerance="10"
     gridtolerance="10"
     guidetolerance="10"
     inkscape:pageopacity="0"
     inkscape:pageshadow="2"
     inkscape:window-width="1366"
     inkscape:window-height="708"
     id="namedview4"
     showgrid="false"
     inkscape:zoom="0.32091769"
     inkscape:cx="398.17818"
     inkscape:cy="721.26295"
     inkscape:window-x="0"
     inkscape:window-y="28"
     inkscape:window-maximized="1"
     inkscape:current-layer="g16" /><g
     id="g10"
     inkscape:groupmode="layer"
     inkscape:label="CarDealership1_FreeVector"
     transform="matrix(1.3333333,0,0,-1.3333333,0,1040)"><g
       transform="translate(-118.15261,37.828138)"
       clip-path="url(#clipPath20)"
       id="g16"><g
         transform="translate(368.1022,-9.8026)"
         id="g22" /><g
         transform="translate(304.5577,464.2652)"
         id="g26" /><g
         transform="translate(1155.3965,313.8602)"
         id="g30" /><g
         transform="translate(416.2398,592.4822)"
         id="g34" /><g
         transform="translate(353.9675,614.9936)"
         id="g38" /><g
         transform="translate(843.7579,567.9616)"
         id="g42" /><g
         transform="translate(774.7184,656.1884)"
         id="g46" /><g
         transform="translate(803.7539,655.5005)"
         id="g50" /><g
         transform="translate(818.0292,487.1814)"
         id="g54" /><g
         transform="translate(845.2899,468.8163)"
         id="g58" /><g
         transform="translate(811.1858,443.7577)"
         id="g62" /><g
         transform="translate(889.7415,418.042)"
         id="g66" /><g
         transform="translate(336.9884,434.7959)"
         id="g70" /><g
         transform="translate(364.249,416.4309)"
         id="g74" /><g
         transform="translate(330.1449,391.3722)"
         id="g78" /><g
         transform="translate(308.8367,433.3006)"
         id="g82" /><g
         transform="translate(310.509,433.5077)"
         id="g86" /><g
         transform="translate(317.1425,438.9114)"
         id="g90" /><g
         transform="translate(421.9034,187.888)"
         id="g94" /><g
         transform="translate(287.1824,213.3704)"
         id="g98" /><g
         transform="translate(254.4047,243.7866)"
         id="g102" /><g
         transform="translate(365.5045,224.8244)"
         id="g106" /><g
         transform="matrix(1.8490413,0,0,1.8412271,274.02865,462.77848)"
         id="g110"><path
           inkscape:connector-curvature="0"
           id="path112"
           style="fill:#1a1a1a;fill-opacity:1;fill-rule:nonzero;stroke:none;stroke-width:2.45951986"
           d="m 329.54239,-184.87513 v -63.3761 l 73.65604,63.3761 z" /></g><g
         transform="matrix(5.3792082,0,0,5.6219934,635.01892,556.16302)"
         id="g114"><path
           inkscape:connector-curvature="0"
           id="path116"
           style="fill:#1a1a1a;fill-opacity:1;fill-rule:nonzero;stroke:none"
           d="m 0,0 c 0.14,-0.412 0.526,-0.689 0.961,-0.689 h 14.68 c 0.435,0 0.821,0.277 0.961,0.689 l 1.849,5.451 c 0.223,0.658 -0.266,1.34 -0.961,1.34 H -0.888 c -0.694,0 -1.183,-0.682 -0.961,-1.34 z" /></g><path
         inkscape:connector-curvature="0"
         id="path118"
         style="fill:#1a1a1a;fill-opacity:1;fill-rule:nonzero;stroke:none;stroke-width:4.23140955"
         d="M 959.57748,470.95904 H 402.22113 v 10.51643 h 557.35635 z m 0,-95.94542 H 402.22113 v 10.51643 h 557.35635 z m 0,-95.94542 H 402.22113 v 10.51645 h 557.35635 z m 0,-95.94542 H 402.22113 v 10.51645 H 959.57748 Z M 563.16801,643.1301 h 32.86487 l -11.8648,-14.15958 h 96.68301 96.67842 L 765.6693,643.1301 h 32.86487 c 5.05472,0 9.15364,-3.17167 9.15364,-7.0798 0,-3.90811 -4.09892,-7.07978 -9.15364,-7.07978 h -21.00466 l 26.64297,-26.90089 H 765.4717 c -3.29016,0 -6.24029,-1.71831 -7.42124,-4.32113 l -10.04052,-16.75069 h 56.16254 v -32.28963 l -6.00133,-21.51213 h -21.98344 v 21.51213 H 585.51447 v -21.51213 h -21.98344 l -6.00592,21.51213 v 32.28963 h 56.16713 l -10.04511,16.75069 c -1.18097,2.60282 -4.13108,4.32113 -7.41665,4.32113 h -38.70537 l 26.64297,26.90089 h -21.00007 c -5.05472,0 -9.15364,3.17167 -9.15364,7.07978 0,3.90813 4.09892,7.0798 9.15364,7.0798 m 54.9494,29.53875 c 0,0 15.88561,3.50677 62.73368,3.50677 46.84807,0 62.73367,-3.50677 62.73367,-3.50677 l 18.43594,-34.9236 H 599.68146 Z m 405.29199,71.67072 H 338.2927 V 5.6915629 h 545.07344 l -7.82561,81.4858031 h -473.3194 v 10.51645 h 472.30851 l -3.57513,37.265334 152.45489,-10.52034 z" /></g></g></svg>